<mxfile host="app.diagrams.net" modified="2024-01-03T15:41:04.192Z" agent="Mozilla/5.0 (Windows NT 10.0; Win64; x64) AppleWebKit/537.36 (KHTML, like Gecko) Chrome/120.0.0.0 Safari/537.36" etag="SaxJ91KKPQ3XEPag-vAc" version="22.1.16" type="device">
  <diagram name="Página-1" id="uc8BbmXpZoxr5c7LVueS">
    <mxGraphModel dx="6531" dy="3200" grid="1" gridSize="4" guides="1" tooltips="1" connect="1" arrows="1" fold="1" page="1" pageScale="1" pageWidth="1169" pageHeight="827" background="#ffffff" math="0" shadow="0">
      <root>
        <mxCell id="0" />
        <mxCell id="1" parent="0" />
        <mxCell id="zGn1lo1Vw22Lt8Va7wTv-13" style="edgeStyle=orthogonalEdgeStyle;rounded=0;orthogonalLoop=1;jettySize=auto;html=1;exitX=1;exitY=0.5;exitDx=0;exitDy=0;entryX=0;entryY=0.5;entryDx=0;entryDy=0;fillColor=#d0cee2;strokeColor=#56517e;strokeWidth=3;endArrow=none;endFill=0;" parent="1" source="zGn1lo1Vw22Lt8Va7wTv-1" target="zGn1lo1Vw22Lt8Va7wTv-4" edge="1">
          <mxGeometry relative="1" as="geometry" />
        </mxCell>
        <mxCell id="zGn1lo1Vw22Lt8Va7wTv-14" style="edgeStyle=orthogonalEdgeStyle;rounded=0;orthogonalLoop=1;jettySize=auto;html=1;entryX=1;entryY=0.5;entryDx=0;entryDy=0;fillColor=#d0cee2;strokeColor=#56517e;strokeWidth=3;endArrow=none;endFill=0;" parent="1" target="zGn1lo1Vw22Lt8Va7wTv-5" edge="1">
          <mxGeometry relative="1" as="geometry">
            <mxPoint x="112" y="436" as="sourcePoint" />
            <Array as="points">
              <mxPoint x="64" y="436" />
              <mxPoint x="64" y="392" />
              <mxPoint x="9" y="392" />
            </Array>
          </mxGeometry>
        </mxCell>
        <mxCell id="zGn1lo1Vw22Lt8Va7wTv-1" value="Empleados&lt;br&gt;Clave:id&lt;br&gt;Attr Nuevos: Grupo adscrito, tipo de personal" style="rounded=0;whiteSpace=wrap;html=1;fillColor=#f8cecc;strokeColor=#b85450;" parent="1" vertex="1">
          <mxGeometry x="112" y="352" width="120" height="120" as="geometry" />
        </mxCell>
        <mxCell id="zGn1lo1Vw22Lt8Va7wTv-25" style="edgeStyle=orthogonalEdgeStyle;shape=connector;rounded=0;orthogonalLoop=1;jettySize=auto;html=1;exitX=1;exitY=0.5;exitDx=0;exitDy=0;entryX=0;entryY=0.5;entryDx=0;entryDy=0;labelBackgroundColor=default;strokeColor=#56517e;strokeWidth=3;align=center;verticalAlign=middle;fontFamily=Helvetica;fontSize=11;fontColor=default;endArrow=none;endFill=0;startSize=10;endSize=10;fillColor=#d0cee2;" parent="1" source="zGn1lo1Vw22Lt8Va7wTv-2" target="zGn1lo1Vw22Lt8Va7wTv-24" edge="1">
          <mxGeometry relative="1" as="geometry">
            <Array as="points">
              <mxPoint x="696" y="412" />
              <mxPoint x="696" y="488" />
            </Array>
          </mxGeometry>
        </mxCell>
        <mxCell id="zGn1lo1Vw22Lt8Va7wTv-40" style="edgeStyle=orthogonalEdgeStyle;shape=connector;rounded=0;orthogonalLoop=1;jettySize=auto;html=1;exitX=1;exitY=0.5;exitDx=0;exitDy=0;entryX=0;entryY=0.5;entryDx=0;entryDy=0;labelBackgroundColor=default;strokeColor=#56517e;strokeWidth=3;align=center;verticalAlign=middle;fontFamily=Helvetica;fontSize=11;fontColor=default;endArrow=none;endFill=0;startSize=10;endSize=10;fillColor=#d0cee2;" parent="1" source="zGn1lo1Vw22Lt8Va7wTv-2" target="zGn1lo1Vw22Lt8Va7wTv-38" edge="1">
          <mxGeometry relative="1" as="geometry">
            <Array as="points">
              <mxPoint x="696" y="412" />
              <mxPoint x="696" y="628" />
              <mxPoint x="744" y="628" />
            </Array>
          </mxGeometry>
        </mxCell>
        <mxCell id="zGn1lo1Vw22Lt8Va7wTv-58" style="edgeStyle=orthogonalEdgeStyle;shape=connector;rounded=0;orthogonalLoop=1;jettySize=auto;html=1;labelBackgroundColor=default;strokeColor=#56517e;strokeWidth=3;align=center;verticalAlign=middle;fontFamily=Helvetica;fontSize=11;fontColor=default;endArrow=none;endFill=0;startSize=10;endSize=10;fillColor=#d0cee2;exitX=1;exitY=0.5;exitDx=0;exitDy=0;entryX=0.5;entryY=1;entryDx=0;entryDy=0;" parent="1" source="KVI1gY8sbdcI6AzLsvDt-9" target="zGn1lo1Vw22Lt8Va7wTv-57" edge="1">
          <mxGeometry relative="1" as="geometry">
            <mxPoint x="1188" y="384" as="sourcePoint" />
            <mxPoint x="1396" y="344" as="targetPoint" />
            <Array as="points">
              <mxPoint x="1052" y="400" />
              <mxPoint x="1152" y="400" />
            </Array>
          </mxGeometry>
        </mxCell>
        <mxCell id="zGn1lo1Vw22Lt8Va7wTv-2" value="Posición&lt;br&gt;Clave:id&lt;br&gt;FK: id_req&lt;br&gt;Attr. Nuevos: id_rpt, nombre_rpt, tipo de puesto (singularizado s/n), provisión, vacante" style="rounded=0;whiteSpace=wrap;html=1;fillColor=#f8cecc;strokeColor=#b85450;" parent="1" vertex="1">
          <mxGeometry x="520" y="352" width="120" height="120" as="geometry" />
        </mxCell>
        <mxCell id="zGn1lo1Vw22Lt8Va7wTv-3" value="Posición Ext&lt;br&gt;Clave:id" style="rounded=0;whiteSpace=wrap;html=1;fillColor=#b1ddf0;strokeColor=#10739e;" parent="1" vertex="1">
          <mxGeometry x="-300" y="374" width="120" height="60" as="geometry" />
        </mxCell>
        <mxCell id="zGn1lo1Vw22Lt8Va7wTv-15" style="edgeStyle=orthogonalEdgeStyle;rounded=0;orthogonalLoop=1;jettySize=auto;html=1;exitX=1;exitY=0.5;exitDx=0;exitDy=0;entryX=0;entryY=0.5;entryDx=0;entryDy=0;fillColor=#d0cee2;strokeColor=#56517e;strokeWidth=3;endArrow=none;endFill=0;endSize=10;startSize=10;" parent="1" source="zGn1lo1Vw22Lt8Va7wTv-4" target="zGn1lo1Vw22Lt8Va7wTv-2" edge="1">
          <mxGeometry relative="1" as="geometry" />
        </mxCell>
        <mxCell id="zGn1lo1Vw22Lt8Va7wTv-4" value="Empleado-Posición&lt;br&gt;clave: id_emp+id_pos" style="rounded=0;whiteSpace=wrap;html=1;fillColor=#bac8d3;strokeColor=#23445d;" parent="1" vertex="1">
          <mxGeometry x="316" y="372" width="120" height="80" as="geometry" />
        </mxCell>
        <mxCell id="zGn1lo1Vw22Lt8Va7wTv-39" style="edgeStyle=orthogonalEdgeStyle;shape=connector;rounded=0;orthogonalLoop=1;jettySize=auto;html=1;exitX=0.006;exitY=0.637;exitDx=0;exitDy=0;entryX=1;entryY=0.5;entryDx=0;entryDy=0;labelBackgroundColor=default;strokeColor=#56517e;strokeWidth=3;align=center;verticalAlign=middle;fontFamily=Helvetica;fontSize=11;fontColor=default;endArrow=none;endFill=0;startSize=10;endSize=10;fillColor=#d0cee2;exitPerimeter=0;" parent="1" source="zGn1lo1Vw22Lt8Va7wTv-5" target="zGn1lo1Vw22Lt8Va7wTv-3" edge="1">
          <mxGeometry relative="1" as="geometry" />
        </mxCell>
        <mxCell id="zGn1lo1Vw22Lt8Va7wTv-5" value="Empleado-PosiciónEXT&lt;br&gt;clave: id_emp+id_posext" style="rounded=0;whiteSpace=wrap;html=1;fillColor=#bac8d3;strokeColor=#23445d;" parent="1" vertex="1">
          <mxGeometry x="-111" y="356" width="120" height="80" as="geometry" />
        </mxCell>
        <mxCell id="zGn1lo1Vw22Lt8Va7wTv-30" style="edgeStyle=orthogonalEdgeStyle;shape=connector;rounded=0;orthogonalLoop=1;jettySize=auto;html=1;exitX=1;exitY=0.5;exitDx=0;exitDy=0;entryX=1;entryY=0.5;entryDx=0;entryDy=0;labelBackgroundColor=default;strokeColor=#56517e;strokeWidth=3;align=center;verticalAlign=middle;fontFamily=Helvetica;fontSize=11;fontColor=default;endArrow=none;endFill=0;startSize=10;endSize=10;fillColor=#d0cee2;" parent="1" source="zGn1lo1Vw22Lt8Va7wTv-23" target="zGn1lo1Vw22Lt8Va7wTv-29" edge="1">
          <mxGeometry relative="1" as="geometry">
            <Array as="points">
              <mxPoint x="1116" y="488" />
              <mxPoint x="1116" y="948" />
            </Array>
          </mxGeometry>
        </mxCell>
        <mxCell id="zGn1lo1Vw22Lt8Va7wTv-23" value="Records Pos&lt;br&gt;Clave:id&lt;br&gt;Attr Nuevos: Nombre pos historico, fecha inicio, fecha final" style="rounded=0;whiteSpace=wrap;html=1;fillColor=#b1ddf0;strokeColor=#10739e;" parent="1" vertex="1">
          <mxGeometry x="936" y="440" width="120" height="96" as="geometry" />
        </mxCell>
        <mxCell id="zGn1lo1Vw22Lt8Va7wTv-26" style="edgeStyle=orthogonalEdgeStyle;shape=connector;rounded=0;orthogonalLoop=1;jettySize=auto;html=1;exitX=1;exitY=0.5;exitDx=0;exitDy=0;entryX=0;entryY=0.5;entryDx=0;entryDy=0;labelBackgroundColor=default;strokeColor=#56517e;strokeWidth=3;align=center;verticalAlign=middle;fontFamily=Helvetica;fontSize=11;fontColor=default;endArrow=none;endFill=0;startSize=10;endSize=10;fillColor=#d0cee2;" parent="1" source="zGn1lo1Vw22Lt8Va7wTv-24" target="zGn1lo1Vw22Lt8Va7wTv-23" edge="1">
          <mxGeometry relative="1" as="geometry" />
        </mxCell>
        <mxCell id="zGn1lo1Vw22Lt8Va7wTv-24" value="Posición-Record&lt;br&gt;clave: id_pos+ id_record" style="rounded=0;whiteSpace=wrap;html=1;fillColor=#bac8d3;strokeColor=#23445d;fontStyle=1" parent="1" vertex="1">
          <mxGeometry x="742" y="448" width="120" height="80" as="geometry" />
        </mxCell>
        <mxCell id="zGn1lo1Vw22Lt8Va7wTv-31" style="edgeStyle=orthogonalEdgeStyle;shape=connector;rounded=0;orthogonalLoop=1;jettySize=auto;html=1;exitX=0;exitY=0.5;exitDx=0;exitDy=0;entryX=0.5;entryY=1;entryDx=0;entryDy=0;labelBackgroundColor=default;strokeColor=#56517e;strokeWidth=3;align=center;verticalAlign=middle;fontFamily=Helvetica;fontSize=11;fontColor=default;endArrow=none;endFill=0;startSize=10;endSize=10;fillColor=#d0cee2;" parent="1" source="zGn1lo1Vw22Lt8Va7wTv-29" target="zGn1lo1Vw22Lt8Va7wTv-1" edge="1">
          <mxGeometry relative="1" as="geometry" />
        </mxCell>
        <mxCell id="zGn1lo1Vw22Lt8Va7wTv-29" value="Empleado-Record&lt;br&gt;clave: id_emp+ id_record" style="rounded=0;whiteSpace=wrap;html=1;fillColor=#bac8d3;strokeColor=#23445d;" parent="1" vertex="1">
          <mxGeometry x="320" y="908" width="120" height="80" as="geometry" />
        </mxCell>
        <mxCell id="zGn1lo1Vw22Lt8Va7wTv-33" value="Complementos Per.&lt;br&gt;Clave:id&lt;br&gt;Attr: Nombre, valor absoluto, porcentaje sobre salario" style="rounded=0;whiteSpace=wrap;html=1;fillColor=#b1ddf0;strokeColor=#10739e;" parent="1" vertex="1">
          <mxGeometry x="-284" y="516" width="120" height="120" as="geometry" />
        </mxCell>
        <mxCell id="zGn1lo1Vw22Lt8Va7wTv-35" style="edgeStyle=orthogonalEdgeStyle;shape=connector;rounded=0;orthogonalLoop=1;jettySize=auto;html=1;exitX=1;exitY=0.5;exitDx=0;exitDy=0;labelBackgroundColor=default;strokeColor=#56517e;strokeWidth=3;align=center;verticalAlign=middle;fontFamily=Helvetica;fontSize=11;fontColor=default;endArrow=none;endFill=0;startSize=10;endSize=10;fillColor=#d0cee2;" parent="1" source="zGn1lo1Vw22Lt8Va7wTv-34" edge="1">
          <mxGeometry relative="1" as="geometry">
            <mxPoint x="112" y="440" as="targetPoint" />
            <Array as="points">
              <mxPoint x="28" y="560" />
              <mxPoint x="64" y="560" />
              <mxPoint x="64" y="440" />
            </Array>
          </mxGeometry>
        </mxCell>
        <mxCell id="zGn1lo1Vw22Lt8Va7wTv-36" style="edgeStyle=orthogonalEdgeStyle;shape=connector;rounded=0;orthogonalLoop=1;jettySize=auto;html=1;exitX=-0.019;exitY=0.622;exitDx=0;exitDy=0;entryX=1;entryY=0.5;entryDx=0;entryDy=0;labelBackgroundColor=default;strokeColor=#56517e;strokeWidth=3;align=center;verticalAlign=middle;fontFamily=Helvetica;fontSize=11;fontColor=default;endArrow=none;endFill=0;startSize=10;endSize=10;fillColor=#d0cee2;exitPerimeter=0;" parent="1" source="zGn1lo1Vw22Lt8Va7wTv-34" target="zGn1lo1Vw22Lt8Va7wTv-33" edge="1">
          <mxGeometry relative="1" as="geometry" />
        </mxCell>
        <mxCell id="zGn1lo1Vw22Lt8Va7wTv-34" value="Empleado-CompPer&lt;br&gt;clave: id_emp+ id_complemento" style="rounded=0;whiteSpace=wrap;html=1;fillColor=#bac8d3;strokeColor=#23445d;" parent="1" vertex="1">
          <mxGeometry x="-92" y="524" width="120" height="80" as="geometry" />
        </mxCell>
        <mxCell id="zGn1lo1Vw22Lt8Va7wTv-37" value="Complementos Pos.&lt;br&gt;Clave:id&lt;br&gt;Attr: Nombre, valor absoluto, porcentaje sobre salario" style="rounded=0;whiteSpace=wrap;html=1;fillColor=#b1ddf0;strokeColor=#10739e;" parent="1" vertex="1">
          <mxGeometry x="928" y="572" width="120" height="120" as="geometry" />
        </mxCell>
        <mxCell id="zGn1lo1Vw22Lt8Va7wTv-41" style="edgeStyle=orthogonalEdgeStyle;shape=connector;rounded=0;orthogonalLoop=1;jettySize=auto;html=1;exitX=1;exitY=0.5;exitDx=0;exitDy=0;labelBackgroundColor=default;strokeColor=#56517e;strokeWidth=3;align=center;verticalAlign=middle;fontFamily=Helvetica;fontSize=11;fontColor=default;endArrow=none;endFill=0;startSize=10;endSize=10;fillColor=#d0cee2;" parent="1" source="zGn1lo1Vw22Lt8Va7wTv-38" target="zGn1lo1Vw22Lt8Va7wTv-37" edge="1">
          <mxGeometry relative="1" as="geometry" />
        </mxCell>
        <mxCell id="zGn1lo1Vw22Lt8Va7wTv-38" value="Posición-CompPos&lt;br&gt;clave: id_emp+ id_complemento" style="rounded=0;whiteSpace=wrap;html=1;fillColor=#bac8d3;strokeColor=#23445d;" parent="1" vertex="1">
          <mxGeometry x="744" y="592" width="120" height="80" as="geometry" />
        </mxCell>
        <mxCell id="zGn1lo1Vw22Lt8Va7wTv-48" style="edgeStyle=orthogonalEdgeStyle;shape=connector;rounded=0;orthogonalLoop=1;jettySize=auto;html=1;exitX=0;exitY=0.5;exitDx=0;exitDy=0;entryX=1;entryY=0.5;entryDx=0;entryDy=0;labelBackgroundColor=default;strokeColor=#56517e;strokeWidth=3;align=center;verticalAlign=middle;fontFamily=Helvetica;fontSize=11;fontColor=default;endArrow=none;endFill=0;startSize=10;endSize=10;fillColor=#d0cee2;" parent="1" source="zGn1lo1Vw22Lt8Va7wTv-42" target="zGn1lo1Vw22Lt8Va7wTv-2" edge="1">
          <mxGeometry relative="1" as="geometry">
            <Array as="points">
              <mxPoint x="696" y="132" />
              <mxPoint x="696" y="412" />
            </Array>
          </mxGeometry>
        </mxCell>
        <mxCell id="zGn1lo1Vw22Lt8Va7wTv-42" value="Requisitos&lt;br&gt;Clave:id&lt;br&gt;FK: id_pos&lt;br&gt;Attr.:&amp;nbsp;" style="rounded=0;whiteSpace=wrap;html=1;fillColor=#b1ddf0;strokeColor=#10739e;" parent="1" vertex="1">
          <mxGeometry x="756" y="72" width="120" height="120" as="geometry" />
        </mxCell>
        <mxCell id="zGn1lo1Vw22Lt8Va7wTv-43" value="Tipo de personal&lt;br&gt;Clave:id&lt;br&gt;Attr.: Nombre" style="rounded=0;whiteSpace=wrap;html=1;fillColor=#b1ddf0;strokeColor=#10739e;" parent="1" vertex="1">
          <mxGeometry x="1164" y="168" width="120" height="64" as="geometry" />
        </mxCell>
        <mxCell id="zGn1lo1Vw22Lt8Va7wTv-45" style="edgeStyle=orthogonalEdgeStyle;shape=connector;rounded=0;orthogonalLoop=1;jettySize=auto;html=1;exitX=0;exitY=0.5;exitDx=0;exitDy=0;entryX=1;entryY=0.5;entryDx=0;entryDy=0;labelBackgroundColor=default;strokeColor=#56517e;strokeWidth=3;align=center;verticalAlign=middle;fontFamily=Helvetica;fontSize=11;fontColor=default;endArrow=none;endFill=0;startSize=10;endSize=10;fillColor=#d0cee2;" parent="1" source="zGn1lo1Vw22Lt8Va7wTv-44" target="zGn1lo1Vw22Lt8Va7wTv-42" edge="1">
          <mxGeometry relative="1" as="geometry" />
        </mxCell>
        <mxCell id="zGn1lo1Vw22Lt8Va7wTv-46" style="edgeStyle=orthogonalEdgeStyle;shape=connector;rounded=0;orthogonalLoop=1;jettySize=auto;html=1;exitX=1;exitY=0.5;exitDx=0;exitDy=0;entryX=0;entryY=0.5;entryDx=0;entryDy=0;labelBackgroundColor=default;strokeColor=#56517e;strokeWidth=3;align=center;verticalAlign=middle;fontFamily=Helvetica;fontSize=11;fontColor=default;endArrow=none;endFill=0;startSize=10;endSize=10;fillColor=#d0cee2;" parent="1" source="zGn1lo1Vw22Lt8Va7wTv-44" target="zGn1lo1Vw22Lt8Va7wTv-43" edge="1">
          <mxGeometry relative="1" as="geometry" />
        </mxCell>
        <mxCell id="zGn1lo1Vw22Lt8Va7wTv-44" value="Req-Tipo&lt;br&gt;clave: id_req+ id_tipo" style="rounded=0;whiteSpace=wrap;html=1;fillColor=#bac8d3;strokeColor=#23445d;" parent="1" vertex="1">
          <mxGeometry x="964" y="160" width="120" height="80" as="geometry" />
        </mxCell>
        <mxCell id="zGn1lo1Vw22Lt8Va7wTv-49" value="Grupo adscrito&lt;br&gt;Clave:id&lt;br&gt;Attr.: Nombre" style="rounded=0;whiteSpace=wrap;html=1;fillColor=#b1ddf0;strokeColor=#10739e;" parent="1" vertex="1">
          <mxGeometry x="1164" y="48" width="120" height="72" as="geometry" />
        </mxCell>
        <mxCell id="zGn1lo1Vw22Lt8Va7wTv-51" style="edgeStyle=orthogonalEdgeStyle;shape=connector;rounded=0;orthogonalLoop=1;jettySize=auto;html=1;entryX=1;entryY=0.5;entryDx=0;entryDy=0;labelBackgroundColor=default;strokeColor=#56517e;strokeWidth=3;align=center;verticalAlign=middle;fontFamily=Helvetica;fontSize=11;fontColor=default;endArrow=none;endFill=0;startSize=10;endSize=10;fillColor=#d0cee2;exitX=0;exitY=0.5;exitDx=0;exitDy=0;" parent="1" source="zGn1lo1Vw22Lt8Va7wTv-50" target="zGn1lo1Vw22Lt8Va7wTv-42" edge="1">
          <mxGeometry relative="1" as="geometry">
            <mxPoint x="1056" y="4" as="sourcePoint" />
            <Array as="points">
              <mxPoint x="920" y="84" />
              <mxPoint x="920" y="132" />
            </Array>
          </mxGeometry>
        </mxCell>
        <mxCell id="zGn1lo1Vw22Lt8Va7wTv-52" style="edgeStyle=orthogonalEdgeStyle;shape=connector;rounded=0;orthogonalLoop=1;jettySize=auto;html=1;exitX=1;exitY=0.5;exitDx=0;exitDy=0;entryX=0;entryY=0.5;entryDx=0;entryDy=0;labelBackgroundColor=default;strokeColor=#56517e;strokeWidth=3;align=center;verticalAlign=middle;fontFamily=Helvetica;fontSize=11;fontColor=default;endArrow=none;endFill=0;startSize=10;endSize=10;fillColor=#d0cee2;" parent="1" source="zGn1lo1Vw22Lt8Va7wTv-50" target="zGn1lo1Vw22Lt8Va7wTv-49" edge="1">
          <mxGeometry relative="1" as="geometry" />
        </mxCell>
        <mxCell id="zGn1lo1Vw22Lt8Va7wTv-50" value="Req-grupo&lt;br&gt;clave: id_req+ id_grupo" style="rounded=0;whiteSpace=wrap;html=1;fillColor=#bac8d3;strokeColor=#23445d;" parent="1" vertex="1">
          <mxGeometry x="968" y="44" width="120" height="80" as="geometry" />
        </mxCell>
        <mxCell id="zGn1lo1Vw22Lt8Va7wTv-55" style="edgeStyle=orthogonalEdgeStyle;shape=connector;rounded=0;orthogonalLoop=1;jettySize=auto;html=1;exitX=1;exitY=0.5;exitDx=0;exitDy=0;entryX=0;entryY=0.5;entryDx=0;entryDy=0;labelBackgroundColor=default;strokeColor=#56517e;strokeWidth=3;align=center;verticalAlign=middle;fontFamily=Helvetica;fontSize=11;fontColor=default;endArrow=none;endFill=0;startSize=10;endSize=10;fillColor=#d0cee2;" parent="1" source="zGn1lo1Vw22Lt8Va7wTv-53" target="zGn1lo1Vw22Lt8Va7wTv-54" edge="1">
          <mxGeometry relative="1" as="geometry" />
        </mxCell>
        <mxCell id="KVI1gY8sbdcI6AzLsvDt-3" style="edgeStyle=orthogonalEdgeStyle;shape=connector;rounded=0;orthogonalLoop=1;jettySize=auto;html=1;exitX=0;exitY=0.5;exitDx=0;exitDy=0;entryX=0.5;entryY=0;entryDx=0;entryDy=0;labelBackgroundColor=default;strokeColor=#56517e;strokeWidth=3;align=center;verticalAlign=middle;fontFamily=Helvetica;fontSize=11;fontColor=default;endArrow=none;endFill=0;fillColor=#d0cee2;" parent="1" source="zGn1lo1Vw22Lt8Va7wTv-53" target="KVI1gY8sbdcI6AzLsvDt-1" edge="1">
          <mxGeometry relative="1" as="geometry" />
        </mxCell>
        <mxCell id="zGn1lo1Vw22Lt8Va7wTv-53" value="Titulaciones&lt;br&gt;Clave:id&lt;br&gt;Attr.: Tag, Descripción" style="rounded=0;whiteSpace=wrap;html=1;fillColor=#b1ddf0;strokeColor=#10739e;" parent="1" vertex="1">
          <mxGeometry x="320" y="-96" width="120" height="116" as="geometry" />
        </mxCell>
        <mxCell id="zGn1lo1Vw22Lt8Va7wTv-56" style="edgeStyle=orthogonalEdgeStyle;shape=connector;rounded=0;orthogonalLoop=1;jettySize=auto;html=1;labelBackgroundColor=default;strokeColor=#56517e;strokeWidth=3;align=center;verticalAlign=middle;fontFamily=Helvetica;fontSize=11;fontColor=default;endArrow=none;endFill=0;startSize=10;endSize=10;fillColor=#d0cee2;entryX=1;entryY=0.5;entryDx=0;entryDy=0;exitX=0;exitY=0.5;exitDx=0;exitDy=0;" parent="1" source="zGn1lo1Vw22Lt8Va7wTv-54" target="zGn1lo1Vw22Lt8Va7wTv-42" edge="1">
          <mxGeometry relative="1" as="geometry">
            <mxPoint x="716" y="164" as="targetPoint" />
            <mxPoint x="956" y="-88" as="sourcePoint" />
            <Array as="points">
              <mxPoint x="920" y="-44" />
              <mxPoint x="920" y="132" />
            </Array>
          </mxGeometry>
        </mxCell>
        <mxCell id="zGn1lo1Vw22Lt8Va7wTv-54" value="Titulación-requisitos&lt;br&gt;clave: id_req+ id_titulo" style="rounded=0;whiteSpace=wrap;html=1;fillColor=#bac8d3;strokeColor=#23445d;" parent="1" vertex="1">
          <mxGeometry x="964" y="-84" width="120" height="80" as="geometry" />
        </mxCell>
        <mxCell id="zGn1lo1Vw22Lt8Va7wTv-59" style="edgeStyle=orthogonalEdgeStyle;shape=connector;rounded=0;orthogonalLoop=1;jettySize=auto;html=1;exitX=0.5;exitY=0;exitDx=0;exitDy=0;labelBackgroundColor=default;strokeColor=#56517e;strokeWidth=3;align=center;verticalAlign=middle;fontFamily=Helvetica;fontSize=11;fontColor=default;endArrow=none;endFill=0;startSize=10;endSize=10;fillColor=#d0cee2;entryX=0.5;entryY=0;entryDx=0;entryDy=0;" parent="1" source="zGn1lo1Vw22Lt8Va7wTv-57" target="KVI1gY8sbdcI6AzLsvDt-9" edge="1">
          <mxGeometry relative="1" as="geometry">
            <mxPoint x="1228" y="272" as="targetPoint" />
            <Array as="points">
              <mxPoint x="1152" y="328" />
              <mxPoint x="1152" y="308" />
              <mxPoint x="992" y="308" />
            </Array>
          </mxGeometry>
        </mxCell>
        <mxCell id="zGn1lo1Vw22Lt8Va7wTv-57" value="Depende d&lt;br&gt;clave: id_pos+ id_posP" style="rounded=0;whiteSpace=wrap;html=1;fillColor=#bac8d3;strokeColor=#23445d;fontStyle=1" parent="1" vertex="1">
          <mxGeometry x="1084" y="328" width="120" height="64" as="geometry" />
        </mxCell>
        <mxCell id="TwxXVnbzhG5g05Hw5wYQ-1" value="Ayuntamiento" style="rounded=0;whiteSpace=wrap;html=1;fillColor=#b1ddf0;strokeColor=#10739e;" parent="1" vertex="1">
          <mxGeometry x="-1352" y="1028" width="9316" height="120" as="geometry" />
        </mxCell>
        <mxCell id="KVI1gY8sbdcI6AzLsvDt-5" style="edgeStyle=orthogonalEdgeStyle;shape=connector;rounded=0;orthogonalLoop=1;jettySize=auto;html=1;exitX=0;exitY=0.5;exitDx=0;exitDy=0;entryX=0.5;entryY=0;entryDx=0;entryDy=0;labelBackgroundColor=default;strokeColor=#56517e;strokeWidth=1;align=center;verticalAlign=middle;fontFamily=Helvetica;fontSize=11;fontColor=default;endArrow=none;endFill=0;fillColor=#d0cee2;" parent="1" source="TwxXVnbzhG5g05Hw5wYQ-2" target="TwxXVnbzhG5g05Hw5wYQ-24" edge="1">
          <mxGeometry relative="1" as="geometry" />
        </mxCell>
        <mxCell id="KVI1gY8sbdcI6AzLsvDt-8" style="edgeStyle=orthogonalEdgeStyle;rounded=0;orthogonalLoop=1;jettySize=auto;html=1;exitX=0.5;exitY=1;exitDx=0;exitDy=0;entryX=0.5;entryY=0;entryDx=0;entryDy=0;labelBackgroundColor=default;strokeColor=#56517e;strokeWidth=1;align=center;verticalAlign=middle;fontFamily=Helvetica;fontSize=11;fontColor=default;endArrow=none;endFill=0;fillColor=#d0cee2;targetPerimeterSpacing=7;shadow=0;" parent="1" source="TwxXVnbzhG5g05Hw5wYQ-2" target="TwxXVnbzhG5g05Hw5wYQ-33" edge="1">
          <mxGeometry relative="1" as="geometry" />
        </mxCell>
        <mxCell id="TwxXVnbzhG5g05Hw5wYQ-2" value="&lt;span style=&quot;font-size: 42px;&quot;&gt;&lt;b&gt;Alcaldía&lt;/b&gt;&lt;/span&gt;" style="rounded=0;whiteSpace=wrap;html=1;fillColor=#bac8d3;strokeColor=#23445d;" parent="1" vertex="1">
          <mxGeometry x="3200" y="1132" width="501" height="80" as="geometry" />
        </mxCell>
        <mxCell id="TwxXVnbzhG5g05Hw5wYQ-3" value="Teniente-alcalde" style="rounded=0;whiteSpace=wrap;html=1;fillColor=#bac8d3;strokeColor=#23445d;" parent="1" vertex="1">
          <mxGeometry x="6368" y="1408" width="124" height="80" as="geometry" />
        </mxCell>
        <mxCell id="TwxXVnbzhG5g05Hw5wYQ-4" value="Delegados-concejales&lt;br&gt;" style="rounded=0;whiteSpace=wrap;html=1;fillColor=#bac8d3;strokeColor=#23445d;" parent="1" vertex="1">
          <mxGeometry x="6368" y="1516" width="120" height="80" as="geometry" />
        </mxCell>
        <mxCell id="TwxXVnbzhG5g05Hw5wYQ-5" value="Organicos&lt;br&gt;" style="rounded=0;whiteSpace=wrap;html=1;fillColor=#bac8d3;strokeColor=#23445d;" parent="1" vertex="1">
          <mxGeometry x="6372" y="1620" width="120" height="80" as="geometry" />
        </mxCell>
        <mxCell id="TwxXVnbzhG5g05Hw5wYQ-6" value="Programas&lt;br&gt;" style="rounded=0;whiteSpace=wrap;html=1;fillColor=#bac8d3;strokeColor=#23445d;" parent="1" vertex="1">
          <mxGeometry x="6528" y="1620" width="120" height="80" as="geometry" />
        </mxCell>
        <mxCell id="TwxXVnbzhG5g05Hw5wYQ-7" value="Servicios&lt;br&gt;" style="rounded=0;whiteSpace=wrap;html=1;fillColor=#fff2cc;strokeColor=#d6b656;" parent="1" vertex="1">
          <mxGeometry x="6376" y="1728" width="120" height="80" as="geometry" />
        </mxCell>
        <mxCell id="TwxXVnbzhG5g05Hw5wYQ-8" value="Areas" style="rounded=0;whiteSpace=wrap;html=1;fillColor=#bac8d3;strokeColor=#23445d;" parent="1" vertex="1">
          <mxGeometry x="6372" y="1828" width="120" height="80" as="geometry" />
        </mxCell>
        <mxCell id="TwxXVnbzhG5g05Hw5wYQ-9" value="Unidad&lt;br&gt;" style="rounded=0;whiteSpace=wrap;html=1;fillColor=#f8cecc;strokeColor=#b85450;" parent="1" vertex="1">
          <mxGeometry x="6376" y="1936" width="120" height="80" as="geometry" />
        </mxCell>
        <mxCell id="TwxXVnbzhG5g05Hw5wYQ-10" value="Departamentos&lt;br&gt;" style="rounded=0;whiteSpace=wrap;html=1;fillColor=#f0a30a;strokeColor=#BD7000;fontColor=#000000;" parent="1" vertex="1">
          <mxGeometry x="6372" y="2196" width="120" height="80" as="geometry" />
        </mxCell>
        <mxCell id="TwxXVnbzhG5g05Hw5wYQ-11" value="Empleados&lt;br&gt;" style="rounded=0;whiteSpace=wrap;html=1;fillColor=#bac8d3;strokeColor=#23445d;" parent="1" vertex="1">
          <mxGeometry x="6376" y="2452" width="120" height="80" as="geometry" />
        </mxCell>
        <mxCell id="TwxXVnbzhG5g05Hw5wYQ-12" value="asesores Gobierno" style="rounded=0;whiteSpace=wrap;html=1;fillColor=#bac8d3;strokeColor=#23445d;" parent="1" vertex="1">
          <mxGeometry x="6532" y="1408" width="120" height="80" as="geometry" />
        </mxCell>
        <mxCell id="TwxXVnbzhG5g05Hw5wYQ-13" value="Grupos Políticos&lt;br&gt;" style="rounded=0;whiteSpace=wrap;html=1;fillColor=#bac8d3;strokeColor=#23445d;" parent="1" vertex="1">
          <mxGeometry x="7256" y="1404" width="120" height="80" as="geometry" />
        </mxCell>
        <mxCell id="TwxXVnbzhG5g05Hw5wYQ-21" style="edgeStyle=orthogonalEdgeStyle;rounded=0;orthogonalLoop=1;jettySize=auto;html=1;entryX=0.418;entryY=1.003;entryDx=0;entryDy=0;entryPerimeter=0;" parent="1" source="TwxXVnbzhG5g05Hw5wYQ-14" target="TwxXVnbzhG5g05Hw5wYQ-13" edge="1">
          <mxGeometry relative="1" as="geometry">
            <mxPoint x="7204" y="1488" as="targetPoint" />
            <Array as="points">
              <mxPoint x="7168" y="1508" />
              <mxPoint x="7306" y="1508" />
            </Array>
          </mxGeometry>
        </mxCell>
        <mxCell id="TwxXVnbzhG5g05Hw5wYQ-14" value="Portavoces y vice portavoces&lt;br&gt;" style="rounded=0;whiteSpace=wrap;html=1;fillColor=#bac8d3;strokeColor=#23445d;" parent="1" vertex="1">
          <mxGeometry x="7112" y="1540" width="120" height="40" as="geometry" />
        </mxCell>
        <mxCell id="TwxXVnbzhG5g05Hw5wYQ-20" style="edgeStyle=orthogonalEdgeStyle;rounded=0;orthogonalLoop=1;jettySize=auto;html=1;entryX=0.445;entryY=1.013;entryDx=0;entryDy=0;entryPerimeter=0;" parent="1" source="TwxXVnbzhG5g05Hw5wYQ-16" target="TwxXVnbzhG5g05Hw5wYQ-13" edge="1">
          <mxGeometry relative="1" as="geometry">
            <mxPoint x="7336" y="1496" as="targetPoint" />
            <Array as="points">
              <mxPoint x="7308" y="1496" />
              <mxPoint x="7309" y="1496" />
            </Array>
          </mxGeometry>
        </mxCell>
        <mxCell id="TwxXVnbzhG5g05Hw5wYQ-16" value="Secretarios" style="rounded=0;whiteSpace=wrap;html=1;fillColor=#bac8d3;strokeColor=#23445d;" parent="1" vertex="1">
          <mxGeometry x="7248" y="1538" width="120" height="38" as="geometry" />
        </mxCell>
        <mxCell id="TwxXVnbzhG5g05Hw5wYQ-23" style="edgeStyle=orthogonalEdgeStyle;rounded=0;orthogonalLoop=1;jettySize=auto;html=1;" parent="1" edge="1">
          <mxGeometry relative="1" as="geometry">
            <Array as="points">
              <mxPoint x="7508" y="1508" />
              <mxPoint x="7376" y="1508" />
            </Array>
            <mxPoint x="7508" y="1537" as="sourcePoint" />
            <mxPoint x="7376" y="1484" as="targetPoint" />
          </mxGeometry>
        </mxCell>
        <mxCell id="TwxXVnbzhG5g05Hw5wYQ-22" value="Asesores" style="rounded=0;whiteSpace=wrap;html=1;fillColor=#bac8d3;strokeColor=#23445d;" parent="1" vertex="1">
          <mxGeometry x="6950" y="1537" width="120" height="40" as="geometry" />
        </mxCell>
        <mxCell id="TwxXVnbzhG5g05Hw5wYQ-24" value="Staff" style="rounded=0;whiteSpace=wrap;html=1;fillColor=#647687;strokeColor=#314354;fontColor=#ffffff;" parent="1" vertex="1">
          <mxGeometry x="-632" y="1280" width="120" height="80" as="geometry" />
        </mxCell>
        <mxCell id="TwxXVnbzhG5g05Hw5wYQ-25" value="Staff" style="rounded=0;whiteSpace=wrap;html=1;fillColor=#fff2cc;strokeColor=#d6b656;" parent="1" vertex="1">
          <mxGeometry x="6552" y="1728" width="120" height="80" as="geometry" />
        </mxCell>
        <mxCell id="TwxXVnbzhG5g05Hw5wYQ-29" style="edgeStyle=orthogonalEdgeStyle;rounded=0;orthogonalLoop=1;jettySize=auto;html=1;" parent="1" source="TwxXVnbzhG5g05Hw5wYQ-26" target="TwxXVnbzhG5g05Hw5wYQ-24" edge="1">
          <mxGeometry relative="1" as="geometry">
            <Array as="points">
              <mxPoint x="-1040" y="1380" />
              <mxPoint x="-572" y="1380" />
            </Array>
          </mxGeometry>
        </mxCell>
        <mxCell id="TwxXVnbzhG5g05Hw5wYQ-26" value="secretaria" style="rounded=0;whiteSpace=wrap;html=1;fillColor=#f0a30a;strokeColor=#BD7000;fontColor=#000000;" parent="1" vertex="1">
          <mxGeometry x="-1080" y="1396" width="80" height="48" as="geometry" />
        </mxCell>
        <mxCell id="TwxXVnbzhG5g05Hw5wYQ-30" style="edgeStyle=orthogonalEdgeStyle;rounded=0;orthogonalLoop=1;jettySize=auto;html=1;" parent="1" source="TwxXVnbzhG5g05Hw5wYQ-27" target="TwxXVnbzhG5g05Hw5wYQ-24" edge="1">
          <mxGeometry relative="1" as="geometry">
            <Array as="points">
              <mxPoint x="-572" y="1384" />
              <mxPoint x="-572" y="1384" />
            </Array>
          </mxGeometry>
        </mxCell>
        <mxCell id="TwxXVnbzhG5g05Hw5wYQ-27" value="Organo de apoyo a JGL" style="rounded=0;whiteSpace=wrap;html=1;fillColor=#f0a30a;strokeColor=#BD7000;fontColor=#000000;" parent="1" vertex="1">
          <mxGeometry x="-616" y="1392" width="80" height="48" as="geometry" />
        </mxCell>
        <mxCell id="TwxXVnbzhG5g05Hw5wYQ-31" style="edgeStyle=orthogonalEdgeStyle;rounded=0;orthogonalLoop=1;jettySize=auto;html=1;entryX=0.5;entryY=1;entryDx=0;entryDy=0;" parent="1" source="TwxXVnbzhG5g05Hw5wYQ-28" target="TwxXVnbzhG5g05Hw5wYQ-24" edge="1">
          <mxGeometry relative="1" as="geometry">
            <mxPoint x="-564" y="1364" as="targetPoint" />
            <Array as="points">
              <mxPoint x="-352" y="1380" />
              <mxPoint x="-572" y="1380" />
            </Array>
          </mxGeometry>
        </mxCell>
        <mxCell id="TwxXVnbzhG5g05Hw5wYQ-28" value="Servicio apoyo tribunales" style="rounded=0;whiteSpace=wrap;html=1;fillColor=#f0a30a;strokeColor=#BD7000;fontColor=#000000;" parent="1" vertex="1">
          <mxGeometry x="-392" y="1394" width="80" height="44" as="geometry" />
        </mxCell>
        <mxCell id="TwxXVnbzhG5g05Hw5wYQ-33" value="Responsable seguridad y enlace&lt;br&gt;" style="rounded=0;whiteSpace=wrap;html=1;fillColor=#bac8d3;strokeColor=#23445d;" parent="1" vertex="1">
          <mxGeometry x="-200" y="1384" width="80" height="44" as="geometry" />
        </mxCell>
        <mxCell id="TwxXVnbzhG5g05Hw5wYQ-35" style="edgeStyle=orthogonalEdgeStyle;rounded=0;orthogonalLoop=1;jettySize=auto;html=1;" parent="1" source="TwxXVnbzhG5g05Hw5wYQ-34" edge="1">
          <mxGeometry relative="1" as="geometry">
            <Array as="points">
              <mxPoint x="48" y="1532" />
              <mxPoint x="48" y="1532" />
            </Array>
            <mxPoint x="48" y="1264" as="targetPoint" />
          </mxGeometry>
        </mxCell>
        <mxCell id="TwxXVnbzhG5g05Hw5wYQ-34" value="Unidad de laboratorio digital y patrimonio cultural&lt;br&gt;" style="rounded=0;whiteSpace=wrap;html=1;fillColor=#f8cecc;strokeColor=#b85450;" parent="1" vertex="1">
          <mxGeometry x="32" y="1712" width="120" height="80" as="geometry" />
        </mxCell>
        <mxCell id="TwxXVnbzhG5g05Hw5wYQ-37" style="edgeStyle=orthogonalEdgeStyle;rounded=0;orthogonalLoop=1;jettySize=auto;html=1;" parent="1" source="TwxXVnbzhG5g05Hw5wYQ-36" target="TwxXVnbzhG5g05Hw5wYQ-34" edge="1">
          <mxGeometry relative="1" as="geometry" />
        </mxCell>
        <mxCell id="TwxXVnbzhG5g05Hw5wYQ-36" value="Jefe unidad&lt;br&gt;" style="rounded=0;whiteSpace=wrap;html=1;fillColor=#f8cecc;strokeColor=#b85450;" parent="1" vertex="1">
          <mxGeometry x="46" y="1828" width="92" height="32" as="geometry" />
        </mxCell>
        <mxCell id="TwxXVnbzhG5g05Hw5wYQ-39" style="edgeStyle=orthogonalEdgeStyle;rounded=0;orthogonalLoop=1;jettySize=auto;html=1;" parent="1" source="TwxXVnbzhG5g05Hw5wYQ-38" edge="1">
          <mxGeometry relative="1" as="geometry">
            <mxPoint x="40" y="1660" as="targetPoint" />
            <Array as="points">
              <mxPoint x="176" y="2020" />
              <mxPoint x="176" y="1664" />
              <mxPoint x="40" y="1664" />
            </Array>
          </mxGeometry>
        </mxCell>
        <mxCell id="TwxXVnbzhG5g05Hw5wYQ-38" value="Departamento de proyectos y asistencia técnica" style="rounded=0;whiteSpace=wrap;html=1;fillColor=#f0a30a;strokeColor=#BD7000;fontColor=#000000;" parent="1" vertex="1">
          <mxGeometry x="40" y="1980" width="120" height="80" as="geometry" />
        </mxCell>
        <mxCell id="TwxXVnbzhG5g05Hw5wYQ-41" style="edgeStyle=orthogonalEdgeStyle;rounded=0;orthogonalLoop=1;jettySize=auto;html=1;entryX=0.5;entryY=1;entryDx=0;entryDy=0;" parent="1" source="TwxXVnbzhG5g05Hw5wYQ-40" target="TwxXVnbzhG5g05Hw5wYQ-38" edge="1">
          <mxGeometry relative="1" as="geometry" />
        </mxCell>
        <mxCell id="TwxXVnbzhG5g05Hw5wYQ-40" value="Jefe departamento&lt;br&gt;" style="rounded=0;whiteSpace=wrap;html=1;fillColor=#d5e8d4;strokeColor=#82b366;" parent="1" vertex="1">
          <mxGeometry x="40" y="2092" width="120" height="36" as="geometry" />
        </mxCell>
        <mxCell id="3jYObA_9YUZSb3R1qSk9-1" style="edgeStyle=orthogonalEdgeStyle;rounded=0;orthogonalLoop=1;jettySize=auto;html=1;" parent="1" source="TwxXVnbzhG5g05Hw5wYQ-42" edge="1">
          <mxGeometry relative="1" as="geometry">
            <mxPoint x="44" y="1260" as="targetPoint" />
            <Array as="points">
              <mxPoint x="-68" y="1664" />
              <mxPoint x="48" y="1664" />
              <mxPoint x="48" y="1260" />
            </Array>
          </mxGeometry>
        </mxCell>
        <mxCell id="TwxXVnbzhG5g05Hw5wYQ-42" value="Unidad patrocinios&lt;br&gt;" style="rounded=0;whiteSpace=wrap;html=1;fillColor=#f8cecc;strokeColor=#b85450;" parent="1" vertex="1">
          <mxGeometry x="-128" y="1712" width="120" height="80" as="geometry" />
        </mxCell>
        <mxCell id="TwxXVnbzhG5g05Hw5wYQ-44" style="edgeStyle=orthogonalEdgeStyle;rounded=0;orthogonalLoop=1;jettySize=auto;html=1;entryX=0.5;entryY=1;entryDx=0;entryDy=0;" parent="1" source="TwxXVnbzhG5g05Hw5wYQ-43" target="TwxXVnbzhG5g05Hw5wYQ-42" edge="1">
          <mxGeometry relative="1" as="geometry" />
        </mxCell>
        <mxCell id="TwxXVnbzhG5g05Hw5wYQ-43" value="Jefe unidad patrocinios&lt;br&gt;" style="rounded=0;whiteSpace=wrap;html=1;fillColor=#f8cecc;strokeColor=#b85450;" parent="1" vertex="1">
          <mxGeometry x="-114" y="1828" width="92" height="32" as="geometry" />
        </mxCell>
        <mxCell id="TwxXVnbzhG5g05Hw5wYQ-46" style="edgeStyle=orthogonalEdgeStyle;rounded=0;orthogonalLoop=1;jettySize=auto;html=1;entryX=0.5;entryY=1;entryDx=0;entryDy=0;" parent="1" source="TwxXVnbzhG5g05Hw5wYQ-45" target="TwxXVnbzhG5g05Hw5wYQ-43" edge="1">
          <mxGeometry relative="1" as="geometry" />
        </mxCell>
        <mxCell id="TwxXVnbzhG5g05Hw5wYQ-45" value="técnico publicidad y patrocinio&lt;br&gt;" style="rounded=0;whiteSpace=wrap;html=1;fillColor=#f8cecc;strokeColor=#b85450;" parent="1" vertex="1">
          <mxGeometry x="-112" y="1896" width="92" height="44" as="geometry" />
        </mxCell>
        <mxCell id="TwxXVnbzhG5g05Hw5wYQ-47" value="Secretario General del Pleno&lt;br&gt;" style="rounded=0;whiteSpace=wrap;html=1;fillColor=#bac8d3;strokeColor=#23445d;" parent="1" vertex="1">
          <mxGeometry x="-1252" y="1464" width="80" height="48" as="geometry" />
        </mxCell>
        <mxCell id="TwxXVnbzhG5g05Hw5wYQ-50" value="" style="edgeStyle=orthogonalEdgeStyle;rounded=0;orthogonalLoop=1;jettySize=auto;html=1;" parent="1" source="TwxXVnbzhG5g05Hw5wYQ-48" target="TwxXVnbzhG5g05Hw5wYQ-49" edge="1">
          <mxGeometry relative="1" as="geometry" />
        </mxCell>
        <mxCell id="TwxXVnbzhG5g05Hw5wYQ-48" value="Oficial Mayor&lt;br&gt;" style="rounded=0;whiteSpace=wrap;html=1;fillColor=#bac8d3;strokeColor=#23445d;" parent="1" vertex="1">
          <mxGeometry x="-1080" y="1460" width="80" height="48" as="geometry" />
        </mxCell>
        <mxCell id="TwxXVnbzhG5g05Hw5wYQ-49" value="Auxiliar administrativo&lt;br&gt;" style="whiteSpace=wrap;html=1;fillColor=#bac8d3;strokeColor=#23445d;rounded=0;" parent="1" vertex="1">
          <mxGeometry x="-1132" y="1612" width="96" height="36" as="geometry" />
        </mxCell>
        <mxCell id="TwxXVnbzhG5g05Hw5wYQ-51" value="Auxiliar administrativo de coordinación" style="whiteSpace=wrap;html=1;fillColor=#bac8d3;strokeColor=#23445d;rounded=0;" parent="1" vertex="1">
          <mxGeometry x="-788" y="1612" width="100" height="40" as="geometry" />
        </mxCell>
        <mxCell id="TwxXVnbzhG5g05Hw5wYQ-55" value="Secretario delegados" style="whiteSpace=wrap;html=1;fillColor=#bac8d3;strokeColor=#23445d;rounded=0;" parent="1" vertex="1">
          <mxGeometry x="-1016" y="1532" width="96" height="36" as="geometry" />
        </mxCell>
        <mxCell id="TwxXVnbzhG5g05Hw5wYQ-57" value="Administrativo de coordinación" style="whiteSpace=wrap;html=1;fillColor=#bac8d3;strokeColor=#23445d;rounded=0;" parent="1" vertex="1">
          <mxGeometry x="-896" y="1532" width="100" height="40" as="geometry" />
        </mxCell>
        <mxCell id="TwxXVnbzhG5g05Hw5wYQ-60" value="" style="edgeStyle=orthogonalEdgeStyle;rounded=0;orthogonalLoop=1;jettySize=auto;html=1;" parent="1" source="TwxXVnbzhG5g05Hw5wYQ-51" target="TwxXVnbzhG5g05Hw5wYQ-59" edge="1">
          <mxGeometry relative="1" as="geometry">
            <mxPoint x="-1076" y="1790" as="sourcePoint" />
            <mxPoint x="-858" y="1576" as="targetPoint" />
          </mxGeometry>
        </mxCell>
        <mxCell id="TwxXVnbzhG5g05Hw5wYQ-59" value="Administrativo de coordinación" style="whiteSpace=wrap;html=1;fillColor=#bac8d3;strokeColor=#23445d;rounded=0;" parent="1" vertex="1">
          <mxGeometry x="-788" y="1532" width="100" height="40" as="geometry" />
        </mxCell>
        <mxCell id="TwxXVnbzhG5g05Hw5wYQ-61" value="Administrativo" style="whiteSpace=wrap;html=1;fillColor=#bac8d3;strokeColor=#23445d;rounded=0;" parent="1" vertex="1">
          <mxGeometry x="-1128" y="1534" width="96" height="32" as="geometry" />
        </mxCell>
        <mxCell id="KVI1gY8sbdcI6AzLsvDt-4" style="edgeStyle=orthogonalEdgeStyle;shape=connector;rounded=0;orthogonalLoop=1;jettySize=auto;html=1;exitX=1;exitY=0.5;exitDx=0;exitDy=0;labelBackgroundColor=default;strokeColor=#56517e;strokeWidth=3;align=center;verticalAlign=middle;fontFamily=Helvetica;fontSize=11;fontColor=default;endArrow=none;endFill=0;fillColor=#d0cee2;" parent="1" source="KVI1gY8sbdcI6AzLsvDt-1" edge="1">
          <mxGeometry relative="1" as="geometry">
            <Array as="points">
              <mxPoint x="28" y="260" />
              <mxPoint x="28" y="256" />
              <mxPoint x="64" y="256" />
              <mxPoint x="64" y="432" />
            </Array>
            <mxPoint x="112" y="432" as="targetPoint" />
          </mxGeometry>
        </mxCell>
        <mxCell id="KVI1gY8sbdcI6AzLsvDt-1" value="Titulación-empleado&lt;br&gt;clave: id_req+ id_titulo" style="rounded=0;whiteSpace=wrap;html=1;fillColor=#bac8d3;strokeColor=#23445d;" parent="1" vertex="1">
          <mxGeometry x="-100" y="220" width="120" height="80" as="geometry" />
        </mxCell>
        <mxCell id="KVI1gY8sbdcI6AzLsvDt-10" style="edgeStyle=orthogonalEdgeStyle;shape=connector;rounded=0;orthogonalLoop=1;jettySize=auto;html=1;exitX=0;exitY=0.5;exitDx=0;exitDy=0;labelBackgroundColor=default;strokeColor=#56517e;strokeWidth=3;align=center;verticalAlign=middle;fontFamily=Helvetica;fontSize=11;fontColor=default;endArrow=none;endFill=0;fillColor=#d0cee2;entryX=1;entryY=0.5;entryDx=0;entryDy=0;" parent="1" source="KVI1gY8sbdcI6AzLsvDt-9" target="KVI1gY8sbdcI6AzLsvDt-11" edge="1">
          <mxGeometry relative="1" as="geometry">
            <mxPoint x="1036" y="380" as="targetPoint" />
          </mxGeometry>
        </mxCell>
        <mxCell id="KVI1gY8sbdcI6AzLsvDt-9" value="Unidad Organizativa&lt;br&gt;Clave:id&lt;br&gt;Attr.: Nombre, tipo, descripción" style="rounded=0;whiteSpace=wrap;html=1;fillColor=#b1ddf0;strokeColor=#10739e;" parent="1" vertex="1">
          <mxGeometry x="932" y="340" width="120" height="64" as="geometry" />
        </mxCell>
        <mxCell id="KVI1gY8sbdcI6AzLsvDt-12" style="edgeStyle=orthogonalEdgeStyle;shape=connector;rounded=0;orthogonalLoop=1;jettySize=auto;html=1;exitX=0;exitY=0.5;exitDx=0;exitDy=0;entryX=1;entryY=0.5;entryDx=0;entryDy=0;labelBackgroundColor=default;strokeColor=#56517e;strokeWidth=3;align=center;verticalAlign=middle;fontFamily=Helvetica;fontSize=11;fontColor=default;endArrow=none;endFill=0;fillColor=#d0cee2;" parent="1" source="KVI1gY8sbdcI6AzLsvDt-11" target="zGn1lo1Vw22Lt8Va7wTv-2" edge="1">
          <mxGeometry relative="1" as="geometry">
            <Array as="points">
              <mxPoint x="696" y="372" />
              <mxPoint x="696" y="412" />
            </Array>
          </mxGeometry>
        </mxCell>
        <mxCell id="KVI1gY8sbdcI6AzLsvDt-11" value="Posición-UO&lt;br&gt;clave: id_pos+ id_UO" style="rounded=0;whiteSpace=wrap;html=1;fillColor=#bac8d3;strokeColor=#23445d;" parent="1" vertex="1">
          <mxGeometry x="744" y="332" width="120" height="80" as="geometry" />
        </mxCell>
        <mxCell id="KVI1gY8sbdcI6AzLsvDt-13" value="Grupo Politico&lt;br&gt;Clave:id&lt;br&gt;Attr.: Nombre" style="rounded=0;whiteSpace=wrap;html=1;fillColor=#b1ddf0;strokeColor=#10739e;" parent="1" vertex="1">
          <mxGeometry x="940" y="736" width="120" height="120" as="geometry" />
        </mxCell>
        <mxCell id="KVI1gY8sbdcI6AzLsvDt-16" style="edgeStyle=orthogonalEdgeStyle;shape=connector;rounded=0;orthogonalLoop=1;jettySize=auto;html=1;exitX=0;exitY=0.5;exitDx=0;exitDy=0;labelBackgroundColor=default;strokeColor=#56517e;strokeWidth=3;align=center;verticalAlign=middle;fontFamily=Helvetica;fontSize=11;fontColor=default;endArrow=none;endFill=0;fillColor=#d0cee2;entryX=1;entryY=0.5;entryDx=0;entryDy=0;" parent="1" source="KVI1gY8sbdcI6AzLsvDt-15" target="zGn1lo1Vw22Lt8Va7wTv-2" edge="1">
          <mxGeometry relative="1" as="geometry">
            <mxPoint x="672" y="520" as="targetPoint" />
            <Array as="points">
              <mxPoint x="744" y="792" />
              <mxPoint x="696" y="792" />
              <mxPoint x="696" y="412" />
            </Array>
          </mxGeometry>
        </mxCell>
        <mxCell id="KVI1gY8sbdcI6AzLsvDt-17" style="edgeStyle=orthogonalEdgeStyle;shape=connector;rounded=0;orthogonalLoop=1;jettySize=auto;html=1;exitX=1;exitY=0.5;exitDx=0;exitDy=0;entryX=0;entryY=0.5;entryDx=0;entryDy=0;labelBackgroundColor=default;strokeColor=#56517e;strokeWidth=3;align=center;verticalAlign=middle;fontFamily=Helvetica;fontSize=11;fontColor=default;endArrow=none;endFill=0;fillColor=#d0cee2;" parent="1" source="KVI1gY8sbdcI6AzLsvDt-15" target="KVI1gY8sbdcI6AzLsvDt-13" edge="1">
          <mxGeometry relative="1" as="geometry" />
        </mxCell>
        <mxCell id="KVI1gY8sbdcI6AzLsvDt-15" value="Depende d&lt;br&gt;clave: id_pos+ id_partido" style="rounded=0;whiteSpace=wrap;html=1;fillColor=#bac8d3;strokeColor=#23445d;fontStyle=1" parent="1" vertex="1">
          <mxGeometry x="744" y="758" width="116" height="76" as="geometry" />
        </mxCell>
        <mxCell id="3jYObA_9YUZSb3R1qSk9-6" style="edgeStyle=orthogonalEdgeStyle;rounded=0;orthogonalLoop=1;jettySize=auto;html=1;entryX=0.5;entryY=1;entryDx=0;entryDy=0;" parent="1" source="3jYObA_9YUZSb3R1qSk9-2" target="3jYObA_9YUZSb3R1qSk9-4" edge="1">
          <mxGeometry relative="1" as="geometry" />
        </mxCell>
        <mxCell id="3jYObA_9YUZSb3R1qSk9-2" value="Jefatura departamento actas y gestión del Pleno" style="rounded=0;whiteSpace=wrap;html=1;fillColor=#d5e8d4;strokeColor=#82b366;" parent="1" vertex="1">
          <mxGeometry x="-724" y="2108" width="120" height="80" as="geometry" />
        </mxCell>
        <mxCell id="3jYObA_9YUZSb3R1qSk9-3" value="Jefe unidad de servicios generales-secretaria&lt;br&gt;" style="rounded=0;whiteSpace=wrap;html=1;fillColor=#f8cecc;strokeColor=#b85450;" parent="1" vertex="1">
          <mxGeometry x="-436" y="1808" width="92" height="60" as="geometry" />
        </mxCell>
        <mxCell id="3jYObA_9YUZSb3R1qSk9-10" style="edgeStyle=orthogonalEdgeStyle;rounded=0;orthogonalLoop=1;jettySize=auto;html=1;exitX=0.5;exitY=0;exitDx=0;exitDy=0;entryX=0.5;entryY=1;entryDx=0;entryDy=0;" parent="1" source="3jYObA_9YUZSb3R1qSk9-4" target="3jYObA_9YUZSb3R1qSk9-8" edge="1">
          <mxGeometry relative="1" as="geometry" />
        </mxCell>
        <mxCell id="3jYObA_9YUZSb3R1qSk9-4" value="Departamento de actas y gestion de la JGL&lt;br&gt;" style="rounded=0;whiteSpace=wrap;html=1;fillColor=#f0a30a;strokeColor=#BD7000;fontColor=#000000;" parent="1" vertex="1">
          <mxGeometry x="-636" y="1987" width="120" height="80" as="geometry" />
        </mxCell>
        <mxCell id="3jYObA_9YUZSb3R1qSk9-7" style="edgeStyle=orthogonalEdgeStyle;rounded=0;orthogonalLoop=1;jettySize=auto;html=1;exitX=0.5;exitY=0;exitDx=0;exitDy=0;" parent="1" source="3jYObA_9YUZSb3R1qSk9-5" edge="1">
          <mxGeometry relative="1" as="geometry">
            <mxPoint x="-576" y="2072" as="targetPoint" />
            <Array as="points">
              <mxPoint x="-500" y="2088" />
              <mxPoint x="-576" y="2088" />
              <mxPoint x="-576" y="2080" />
            </Array>
          </mxGeometry>
        </mxCell>
        <mxCell id="3jYObA_9YUZSb3R1qSk9-5" value="Jefatura unidad actas y gestión del Pleno" style="rounded=0;whiteSpace=wrap;html=1;fillColor=#d5e8d4;strokeColor=#82b366;" parent="1" vertex="1">
          <mxGeometry x="-560" y="2108" width="120" height="80" as="geometry" />
        </mxCell>
        <mxCell id="3jYObA_9YUZSb3R1qSk9-9" style="edgeStyle=orthogonalEdgeStyle;rounded=0;orthogonalLoop=1;jettySize=auto;html=1;" parent="1" source="3jYObA_9YUZSb3R1qSk9-8" edge="1">
          <mxGeometry relative="1" as="geometry">
            <mxPoint x="-576" y="1443.9999999999995" as="targetPoint" />
          </mxGeometry>
        </mxCell>
        <mxCell id="3jYObA_9YUZSb3R1qSk9-8" value="Titular órgano&amp;nbsp; de apoyo a la JGL" style="rounded=0;whiteSpace=wrap;html=1;fillColor=#d5e8d4;strokeColor=#82b366;" parent="1" vertex="1">
          <mxGeometry x="-636" y="1872" width="120" height="80" as="geometry" />
        </mxCell>
        <mxCell id="3jYObA_9YUZSb3R1qSk9-11" value="servicio&lt;br&gt;" style="rounded=0;whiteSpace=wrap;html=1;fillColor=#fff2cc;strokeColor=#d6b656;" parent="1" vertex="1">
          <mxGeometry x="-408" y="1504" width="120" height="80" as="geometry" />
        </mxCell>
        <mxCell id="3jYObA_9YUZSb3R1qSk9-12" value="Auxiliar administrativo&lt;br&gt;" style="whiteSpace=wrap;html=1;fillColor=#bac8d3;strokeColor=#23445d;rounded=0;" parent="1" vertex="1">
          <mxGeometry x="-484" y="1614" width="96" height="36" as="geometry" />
        </mxCell>
        <mxCell id="3jYObA_9YUZSb3R1qSk9-13" value="Auxiliar administrativo de coordinación" style="whiteSpace=wrap;html=1;fillColor=#bac8d3;strokeColor=#23445d;rounded=0;" parent="1" vertex="1">
          <mxGeometry x="-372" y="1610" width="100" height="40" as="geometry" />
        </mxCell>
        <mxCell id="3jYObA_9YUZSb3R1qSk9-14" value="Técnico superior gestión&amp;nbsp;" style="whiteSpace=wrap;html=1;fillColor=#bac8d3;strokeColor=#23445d;rounded=0;" parent="1" vertex="1">
          <mxGeometry x="-256" y="1610" width="100" height="40" as="geometry" />
        </mxCell>
        <mxCell id="3jYObA_9YUZSb3R1qSk9-197" style="edgeStyle=orthogonalEdgeStyle;rounded=0;orthogonalLoop=1;jettySize=auto;html=1;entryX=0.5;entryY=1;entryDx=0;entryDy=0;exitX=0.522;exitY=0;exitDx=0;exitDy=0;exitPerimeter=0;" parent="1" source="3jYObA_9YUZSb3R1qSk9-15" target="TwxXVnbzhG5g05Hw5wYQ-2" edge="1">
          <mxGeometry relative="1" as="geometry">
            <mxPoint x="1628" y="1300" as="sourcePoint" />
            <Array as="points">
              <mxPoint x="1620" y="1292" />
              <mxPoint x="3447" y="1292" />
            </Array>
          </mxGeometry>
        </mxCell>
        <mxCell id="3jYObA_9YUZSb3R1qSk9-15" value="&lt;b&gt;&lt;font style=&quot;font-size: 17px;&quot;&gt;Servicio de alcaldía presidencia y gabinete jurídico&lt;/font&gt;&lt;/b&gt;" style="rounded=0;whiteSpace=wrap;html=1;fillColor=#647687;strokeColor=#314354;fontColor=#ffffff;" parent="1" vertex="1">
          <mxGeometry x="344" y="1452" width="2444" height="22" as="geometry" />
        </mxCell>
        <mxCell id="3jYObA_9YUZSb3R1qSk9-16" value="Dirección servicio&lt;br&gt;" style="rounded=0;whiteSpace=wrap;html=1;fillColor=#e3c800;strokeColor=#B09500;fontColor=#000000;" parent="1" vertex="1">
          <mxGeometry x="1720" y="1486" width="120" height="80" as="geometry" />
        </mxCell>
        <mxCell id="3jYObA_9YUZSb3R1qSk9-19" value="Conductor de presidencia&lt;br&gt;" style="rounded=0;whiteSpace=wrap;html=1;fillColor=#bac8d3;strokeColor=#23445d;" parent="1" vertex="1">
          <mxGeometry x="296" y="2057" width="120" height="40" as="geometry" />
        </mxCell>
        <mxCell id="3jYObA_9YUZSb3R1qSk9-21" value="Administrativo de coordinación" style="whiteSpace=wrap;html=1;fillColor=#bac8d3;strokeColor=#23445d;rounded=0;" parent="1" vertex="1">
          <mxGeometry x="448" y="2057" width="100" height="40" as="geometry" />
        </mxCell>
        <mxCell id="3jYObA_9YUZSb3R1qSk9-22" value="Técnico oficinas coordinación&lt;br&gt;" style="whiteSpace=wrap;html=1;fillColor=#bac8d3;strokeColor=#23445d;rounded=0;" parent="1" vertex="1">
          <mxGeometry x="584" y="2061" width="100" height="40" as="geometry" />
        </mxCell>
        <mxCell id="3jYObA_9YUZSb3R1qSk9-23" value="Asesor jurídico" style="whiteSpace=wrap;html=1;fillColor=#bac8d3;strokeColor=#23445d;rounded=0;" parent="1" vertex="1">
          <mxGeometry x="708" y="2057" width="100" height="40" as="geometry" />
        </mxCell>
        <mxCell id="3jYObA_9YUZSb3R1qSk9-24" value="5&amp;nbsp; Administrativos&lt;br&gt;" style="whiteSpace=wrap;html=1;fillColor=#bac8d3;strokeColor=#23445d;rounded=0;" parent="1" vertex="1">
          <mxGeometry x="828" y="2057" width="100" height="40" as="geometry" />
        </mxCell>
        <mxCell id="3jYObA_9YUZSb3R1qSk9-25" value="2&amp;nbsp; Auxiliar administrativo&amp;nbsp;" style="whiteSpace=wrap;html=1;fillColor=#bac8d3;strokeColor=#23445d;rounded=0;" parent="1" vertex="1">
          <mxGeometry x="940" y="2057" width="100" height="40" as="geometry" />
        </mxCell>
        <mxCell id="3jYObA_9YUZSb3R1qSk9-26" value="Ingeniero superior" style="whiteSpace=wrap;html=1;fillColor=#bac8d3;strokeColor=#23445d;rounded=0;" parent="1" vertex="1">
          <mxGeometry x="1064" y="2057" width="100" height="40" as="geometry" />
        </mxCell>
        <mxCell id="3jYObA_9YUZSb3R1qSk9-69" style="edgeStyle=orthogonalEdgeStyle;rounded=0;orthogonalLoop=1;jettySize=auto;html=1;" parent="1" source="3jYObA_9YUZSb3R1qSk9-27" target="3jYObA_9YUZSb3R1qSk9-16" edge="1">
          <mxGeometry relative="1" as="geometry">
            <Array as="points">
              <mxPoint x="596" y="1716" />
              <mxPoint x="838" y="1716" />
              <mxPoint x="838" y="1660" />
              <mxPoint x="1780" y="1660" />
            </Array>
          </mxGeometry>
        </mxCell>
        <mxCell id="3jYObA_9YUZSb3R1qSk9-27" value="Jefe unidad de administración&lt;br&gt;" style="rounded=0;whiteSpace=wrap;html=1;fillColor=#d5e8d4;strokeColor=#82b366;" parent="1" vertex="1">
          <mxGeometry x="532" y="1952" width="92" height="60" as="geometry" />
        </mxCell>
        <mxCell id="3jYObA_9YUZSb3R1qSk9-28" value="Jefe unidad de calidad de los servicios municipales&lt;br&gt;" style="rounded=0;whiteSpace=wrap;html=1;fillColor=#d5e8d4;strokeColor=#82b366;" parent="1" vertex="1">
          <mxGeometry x="792" y="1954.5" width="92" height="60" as="geometry" />
        </mxCell>
        <mxCell id="3jYObA_9YUZSb3R1qSk9-29" value="Jefe departamento servicios administrativos&amp;nbsp;" style="rounded=0;whiteSpace=wrap;html=1;fillColor=#f8cecc;strokeColor=#b85450;" parent="1" vertex="1">
          <mxGeometry x="392" y="1816" width="92" height="60" as="geometry" />
        </mxCell>
        <mxCell id="3jYObA_9YUZSb3R1qSk9-30" value="Jefe departamento jurídico-administrativo&lt;br&gt;" style="rounded=0;whiteSpace=wrap;html=1;fillColor=#f8cecc;strokeColor=#b85450;" parent="1" vertex="1">
          <mxGeometry x="672" y="1813" width="92" height="66" as="geometry" />
        </mxCell>
        <mxCell id="3jYObA_9YUZSb3R1qSk9-31" value="Jefe departamento enlace técnico con delegaciones&lt;br&gt;" style="rounded=0;whiteSpace=wrap;html=1;fillColor=#f8cecc;strokeColor=#b85450;" parent="1" vertex="1">
          <mxGeometry x="946" y="1804" width="92" height="72" as="geometry" />
        </mxCell>
        <mxCell id="3jYObA_9YUZSb3R1qSk9-201" style="edgeStyle=orthogonalEdgeStyle;rounded=0;orthogonalLoop=1;jettySize=auto;html=1;entryX=0.5;entryY=1;entryDx=0;entryDy=0;" parent="1" source="3jYObA_9YUZSb3R1qSk9-51" target="3jYObA_9YUZSb3R1qSk9-110" edge="1">
          <mxGeometry relative="1" as="geometry">
            <Array as="points">
              <mxPoint x="1550" y="1660" />
              <mxPoint x="1780" y="1660" />
            </Array>
          </mxGeometry>
        </mxCell>
        <mxCell id="3jYObA_9YUZSb3R1qSk9-51" value="Departamento gestión alcaldía&lt;br&gt;" style="rounded=0;whiteSpace=wrap;html=1;fillColor=#f0a30a;strokeColor=#BD7000;fontColor=#000000;" parent="1" vertex="1">
          <mxGeometry x="1490" y="1712" width="120" height="80" as="geometry" />
        </mxCell>
        <mxCell id="3jYObA_9YUZSb3R1qSk9-53" value="Jefe departamento gestión alcaldía" style="rounded=0;whiteSpace=wrap;html=1;fillColor=#f8cecc;strokeColor=#b85450;" parent="1" vertex="1">
          <mxGeometry x="1504" y="1792" width="92" height="60" as="geometry" />
        </mxCell>
        <mxCell id="3jYObA_9YUZSb3R1qSk9-66" style="edgeStyle=orthogonalEdgeStyle;rounded=0;orthogonalLoop=1;jettySize=auto;html=1;" parent="1" source="3jYObA_9YUZSb3R1qSk9-54" target="3jYObA_9YUZSb3R1qSk9-16" edge="1">
          <mxGeometry relative="1" as="geometry">
            <Array as="points">
              <mxPoint x="444" y="1716" />
              <mxPoint x="838" y="1716" />
              <mxPoint x="838" y="1660" />
              <mxPoint x="1780" y="1660" />
            </Array>
          </mxGeometry>
        </mxCell>
        <mxCell id="3jYObA_9YUZSb3R1qSk9-54" value="Departamento servicios administrativos&lt;br&gt;" style="rounded=0;whiteSpace=wrap;html=1;fillColor=#f0a30a;strokeColor=#BD7000;fontColor=#000000;" parent="1" vertex="1">
          <mxGeometry x="384" y="1736" width="120" height="80" as="geometry" />
        </mxCell>
        <mxCell id="3jYObA_9YUZSb3R1qSk9-57" value="Departamento juridico administrativo&lt;br&gt;" style="rounded=0;whiteSpace=wrap;html=1;fillColor=#f0a30a;strokeColor=#BD7000;fontColor=#000000;" parent="1" vertex="1">
          <mxGeometry x="658" y="1733" width="120" height="80" as="geometry" />
        </mxCell>
        <mxCell id="3jYObA_9YUZSb3R1qSk9-68" style="edgeStyle=orthogonalEdgeStyle;rounded=0;orthogonalLoop=1;jettySize=auto;html=1;" parent="1" source="3jYObA_9YUZSb3R1qSk9-58" edge="1">
          <mxGeometry relative="1" as="geometry">
            <mxPoint x="840" y="1704" as="targetPoint" />
            <Array as="points">
              <mxPoint x="992" y="1716" />
              <mxPoint x="840" y="1716" />
            </Array>
          </mxGeometry>
        </mxCell>
        <mxCell id="3jYObA_9YUZSb3R1qSk9-58" value="Departamento enlace técnico con las delegaciones" style="rounded=0;whiteSpace=wrap;html=1;fillColor=#f0a30a;strokeColor=#BD7000;fontColor=#000000;" parent="1" vertex="1">
          <mxGeometry x="932" y="1728" width="120" height="80" as="geometry" />
        </mxCell>
        <mxCell id="3jYObA_9YUZSb3R1qSk9-71" value="Unidad de administración" style="rounded=0;whiteSpace=wrap;html=1;fillColor=#60a917;strokeColor=#2D7600;" parent="1" vertex="1">
          <mxGeometry x="532" y="1892" width="92" height="60" as="geometry" />
        </mxCell>
        <mxCell id="3jYObA_9YUZSb3R1qSk9-199" style="edgeStyle=orthogonalEdgeStyle;rounded=0;orthogonalLoop=1;jettySize=auto;html=1;" parent="1" source="3jYObA_9YUZSb3R1qSk9-72" edge="1">
          <mxGeometry relative="1" as="geometry">
            <mxPoint x="836.0000000000018" y="1708.000000000001" as="targetPoint" />
          </mxGeometry>
        </mxCell>
        <mxCell id="3jYObA_9YUZSb3R1qSk9-72" value="Unidad de calidad de los servicios municipales" style="rounded=0;whiteSpace=wrap;html=1;fillColor=#60a917;strokeColor=#2D7600;" parent="1" vertex="1">
          <mxGeometry x="792" y="1894.5" width="92" height="60" as="geometry" />
        </mxCell>
        <mxCell id="3jYObA_9YUZSb3R1qSk9-97" style="edgeStyle=orthogonalEdgeStyle;rounded=0;orthogonalLoop=1;jettySize=auto;html=1;exitX=0.5;exitY=0;exitDx=0;exitDy=0;" parent="1" source="3jYObA_9YUZSb3R1qSk9-73" target="3jYObA_9YUZSb3R1qSk9-53" edge="1">
          <mxGeometry relative="1" as="geometry">
            <Array as="points">
              <mxPoint x="1326" y="1872" />
              <mxPoint x="1550" y="1872" />
            </Array>
          </mxGeometry>
        </mxCell>
        <mxCell id="3jYObA_9YUZSb3R1qSk9-73" value="Unidad de secretaría alcaldía" style="rounded=0;whiteSpace=wrap;html=1;fillColor=#60a917;strokeColor=#2D7600;" parent="1" vertex="1">
          <mxGeometry x="1280" y="1892" width="92" height="60" as="geometry" />
        </mxCell>
        <mxCell id="3jYObA_9YUZSb3R1qSk9-98" style="edgeStyle=orthogonalEdgeStyle;rounded=0;orthogonalLoop=1;jettySize=auto;html=1;entryX=0.5;entryY=1;entryDx=0;entryDy=0;" parent="1" source="3jYObA_9YUZSb3R1qSk9-74" target="3jYObA_9YUZSb3R1qSk9-53" edge="1">
          <mxGeometry relative="1" as="geometry" />
        </mxCell>
        <mxCell id="3jYObA_9YUZSb3R1qSk9-74" value="Unidad de relaciones institucionales y eventos&lt;br&gt;" style="rounded=0;whiteSpace=wrap;html=1;fillColor=#60a917;strokeColor=#2D7600;" parent="1" vertex="1">
          <mxGeometry x="1424" y="1892" width="92" height="60" as="geometry" />
        </mxCell>
        <mxCell id="3jYObA_9YUZSb3R1qSk9-99" style="edgeStyle=orthogonalEdgeStyle;rounded=0;orthogonalLoop=1;jettySize=auto;html=1;entryX=0.5;entryY=1;entryDx=0;entryDy=0;exitX=0.5;exitY=0;exitDx=0;exitDy=0;" parent="1" source="3jYObA_9YUZSb3R1qSk9-75" target="3jYObA_9YUZSb3R1qSk9-53" edge="1">
          <mxGeometry relative="1" as="geometry">
            <Array as="points">
              <mxPoint x="1606" y="1872" />
              <mxPoint x="1550" y="1872" />
            </Array>
          </mxGeometry>
        </mxCell>
        <mxCell id="3jYObA_9YUZSb3R1qSk9-75" value="Unidad de intermediación de sugerencias y peticiones&lt;br&gt;" style="rounded=0;whiteSpace=wrap;html=1;fillColor=#60a917;strokeColor=#2D7600;" parent="1" vertex="1">
          <mxGeometry x="1560" y="1892" width="92" height="60" as="geometry" />
        </mxCell>
        <mxCell id="3jYObA_9YUZSb3R1qSk9-100" style="edgeStyle=orthogonalEdgeStyle;rounded=0;orthogonalLoop=1;jettySize=auto;html=1;entryX=0.5;entryY=1;entryDx=0;entryDy=0;exitX=0.585;exitY=-0.031;exitDx=0;exitDy=0;exitPerimeter=0;" parent="1" source="3jYObA_9YUZSb3R1qSk9-76" target="3jYObA_9YUZSb3R1qSk9-53" edge="1">
          <mxGeometry relative="1" as="geometry">
            <Array as="points">
              <mxPoint x="1761" y="1872" />
              <mxPoint x="1550" y="1872" />
            </Array>
          </mxGeometry>
        </mxCell>
        <mxCell id="3jYObA_9YUZSb3R1qSk9-76" value="Unidad de Film Oficce&lt;br&gt;" style="rounded=0;whiteSpace=wrap;html=1;fillColor=#60a917;strokeColor=#2D7600;" parent="1" vertex="1">
          <mxGeometry x="1705" y="1892" width="95" height="60" as="geometry" />
        </mxCell>
        <mxCell id="3jYObA_9YUZSb3R1qSk9-202" style="edgeStyle=orthogonalEdgeStyle;rounded=0;orthogonalLoop=1;jettySize=auto;html=1;" parent="1" source="3jYObA_9YUZSb3R1qSk9-77" edge="1">
          <mxGeometry relative="1" as="geometry">
            <mxPoint x="1780" y="1648" as="targetPoint" />
            <Array as="points">
              <mxPoint x="1992" y="1660" />
              <mxPoint x="1780" y="1660" />
            </Array>
          </mxGeometry>
        </mxCell>
        <mxCell id="3jYObA_9YUZSb3R1qSk9-77" value="Departamento atención a la ciudadanía&lt;br&gt;" style="rounded=0;whiteSpace=wrap;html=1;fillColor=#f0a30a;strokeColor=#BD7000;fontColor=#000000;" parent="1" vertex="1">
          <mxGeometry x="1932" y="1712" width="120" height="80" as="geometry" />
        </mxCell>
        <mxCell id="3jYObA_9YUZSb3R1qSk9-203" style="edgeStyle=orthogonalEdgeStyle;rounded=0;orthogonalLoop=1;jettySize=auto;html=1;" parent="1" source="3jYObA_9YUZSb3R1qSk9-78" edge="1">
          <mxGeometry relative="1" as="geometry">
            <mxPoint x="1780" y="1648" as="targetPoint" />
            <Array as="points">
              <mxPoint x="2240" y="1660" />
              <mxPoint x="1780" y="1660" />
            </Array>
          </mxGeometry>
        </mxCell>
        <mxCell id="3jYObA_9YUZSb3R1qSk9-78" value="Departamento de imprenta, imagen y comunicación&lt;br&gt;" style="rounded=0;whiteSpace=wrap;html=1;fillColor=#f0a30a;strokeColor=#BD7000;fontColor=#000000;" parent="1" vertex="1">
          <mxGeometry x="2180" y="1712" width="120" height="80" as="geometry" />
        </mxCell>
        <mxCell id="3jYObA_9YUZSb3R1qSk9-204" style="edgeStyle=orthogonalEdgeStyle;rounded=0;orthogonalLoop=1;jettySize=auto;html=1;entryX=0.5;entryY=1;entryDx=0;entryDy=0;" parent="1" source="3jYObA_9YUZSb3R1qSk9-79" target="3jYObA_9YUZSb3R1qSk9-110" edge="1">
          <mxGeometry relative="1" as="geometry">
            <Array as="points">
              <mxPoint x="2452" y="1660" />
              <mxPoint x="1780" y="1660" />
            </Array>
          </mxGeometry>
        </mxCell>
        <mxCell id="3jYObA_9YUZSb3R1qSk9-79" value="Departamento gabinete de prensa&lt;br&gt;" style="rounded=0;whiteSpace=wrap;html=1;fillColor=#f0a30a;strokeColor=#BD7000;fontColor=#000000;" parent="1" vertex="1">
          <mxGeometry x="2392" y="1712" width="120" height="80" as="geometry" />
        </mxCell>
        <mxCell id="3jYObA_9YUZSb3R1qSk9-205" style="edgeStyle=orthogonalEdgeStyle;rounded=0;orthogonalLoop=1;jettySize=auto;html=1;" parent="1" source="3jYObA_9YUZSb3R1qSk9-80" edge="1">
          <mxGeometry relative="1" as="geometry">
            <mxPoint x="1780" y="1652" as="targetPoint" />
            <Array as="points">
              <mxPoint x="2724" y="1660" />
              <mxPoint x="1780" y="1660" />
            </Array>
          </mxGeometry>
        </mxCell>
        <mxCell id="3jYObA_9YUZSb3R1qSk9-80" value="Departamento de radio y televisión municipal&lt;br&gt;" style="rounded=0;whiteSpace=wrap;html=1;fillColor=#f0a30a;strokeColor=#BD7000;fontColor=#000000;" parent="1" vertex="1">
          <mxGeometry x="2664" y="1712" width="120" height="80" as="geometry" />
        </mxCell>
        <mxCell id="3jYObA_9YUZSb3R1qSk9-81" value="Jefe departamento&amp;nbsp;" style="rounded=0;whiteSpace=wrap;html=1;fillColor=#f8cecc;strokeColor=#b85450;" parent="1" vertex="1">
          <mxGeometry x="1946" y="1792" width="92" height="60" as="geometry" />
        </mxCell>
        <mxCell id="3jYObA_9YUZSb3R1qSk9-102" style="edgeStyle=orthogonalEdgeStyle;rounded=0;orthogonalLoop=1;jettySize=auto;html=1;entryX=0.5;entryY=1;entryDx=0;entryDy=0;" parent="1" source="3jYObA_9YUZSb3R1qSk9-82" target="3jYObA_9YUZSb3R1qSk9-81" edge="1">
          <mxGeometry relative="1" as="geometry" />
        </mxCell>
        <mxCell id="3jYObA_9YUZSb3R1qSk9-82" value="Unidad de registro general y estadística&lt;br&gt;" style="rounded=0;whiteSpace=wrap;html=1;fillColor=#60a917;strokeColor=#2D7600;" parent="1" vertex="1">
          <mxGeometry x="1884" y="1888" width="92" height="60" as="geometry" />
        </mxCell>
        <mxCell id="3jYObA_9YUZSb3R1qSk9-83" value="Jefe unidad&lt;br&gt;" style="rounded=0;whiteSpace=wrap;html=1;fillColor=#d5e8d4;strokeColor=#82b366;" parent="1" vertex="1">
          <mxGeometry x="1884" y="1948" width="92" height="60" as="geometry" />
        </mxCell>
        <mxCell id="3jYObA_9YUZSb3R1qSk9-103" style="edgeStyle=orthogonalEdgeStyle;rounded=0;orthogonalLoop=1;jettySize=auto;html=1;entryX=0.5;entryY=1;entryDx=0;entryDy=0;" parent="1" source="3jYObA_9YUZSb3R1qSk9-84" target="3jYObA_9YUZSb3R1qSk9-81" edge="1">
          <mxGeometry relative="1" as="geometry" />
        </mxCell>
        <mxCell id="3jYObA_9YUZSb3R1qSk9-84" value="Unidad oficina de atención a la ciudadanía" style="rounded=0;whiteSpace=wrap;html=1;fillColor=#60a917;strokeColor=#2D7600;" parent="1" vertex="1">
          <mxGeometry x="2008" y="1888" width="92" height="60" as="geometry" />
        </mxCell>
        <mxCell id="3jYObA_9YUZSb3R1qSk9-85" value="Jefe unidad&lt;br&gt;" style="rounded=0;whiteSpace=wrap;html=1;fillColor=#d5e8d4;strokeColor=#82b366;" parent="1" vertex="1">
          <mxGeometry x="2008" y="1948" width="92" height="60" as="geometry" />
        </mxCell>
        <mxCell id="3jYObA_9YUZSb3R1qSk9-86" value="Jefe departamento&amp;nbsp;" style="rounded=0;whiteSpace=wrap;html=1;fillColor=#f8cecc;strokeColor=#b85450;" parent="1" vertex="1">
          <mxGeometry x="2196" y="1792" width="92" height="60" as="geometry" />
        </mxCell>
        <mxCell id="3jYObA_9YUZSb3R1qSk9-104" style="edgeStyle=orthogonalEdgeStyle;rounded=0;orthogonalLoop=1;jettySize=auto;html=1;entryX=0.5;entryY=1;entryDx=0;entryDy=0;" parent="1" source="3jYObA_9YUZSb3R1qSk9-87" target="3jYObA_9YUZSb3R1qSk9-86" edge="1">
          <mxGeometry relative="1" as="geometry" />
        </mxCell>
        <mxCell id="3jYObA_9YUZSb3R1qSk9-87" value="Unidad de imprenta&lt;br&gt;" style="rounded=0;whiteSpace=wrap;html=1;fillColor=#60a917;strokeColor=#2D7600;" parent="1" vertex="1">
          <mxGeometry x="2196" y="1888" width="92" height="60" as="geometry" />
        </mxCell>
        <mxCell id="3jYObA_9YUZSb3R1qSk9-88" value="Jefe unidad&lt;br&gt;" style="rounded=0;whiteSpace=wrap;html=1;fillColor=#d5e8d4;strokeColor=#82b366;" parent="1" vertex="1">
          <mxGeometry x="2196" y="1948" width="92" height="60" as="geometry" />
        </mxCell>
        <mxCell id="3jYObA_9YUZSb3R1qSk9-89" value="Jefe departamento&amp;nbsp;" style="rounded=0;whiteSpace=wrap;html=1;fillColor=#f8cecc;strokeColor=#b85450;" parent="1" vertex="1">
          <mxGeometry x="2406" y="1792" width="92" height="60" as="geometry" />
        </mxCell>
        <mxCell id="3jYObA_9YUZSb3R1qSk9-105" style="edgeStyle=orthogonalEdgeStyle;rounded=0;orthogonalLoop=1;jettySize=auto;html=1;entryX=0.5;entryY=1;entryDx=0;entryDy=0;" parent="1" source="3jYObA_9YUZSb3R1qSk9-90" target="3jYObA_9YUZSb3R1qSk9-89" edge="1">
          <mxGeometry relative="1" as="geometry" />
        </mxCell>
        <mxCell id="3jYObA_9YUZSb3R1qSk9-90" value="Unidad gestión de la comunicación institucional en RRSS&lt;br&gt;" style="rounded=0;whiteSpace=wrap;html=1;fillColor=#60a917;strokeColor=#2D7600;" parent="1" vertex="1">
          <mxGeometry x="2406" y="1888" width="92" height="76" as="geometry" />
        </mxCell>
        <mxCell id="3jYObA_9YUZSb3R1qSk9-91" value="Jefe unidad&lt;br&gt;" style="rounded=0;whiteSpace=wrap;html=1;fillColor=#d5e8d4;strokeColor=#82b366;" parent="1" vertex="1">
          <mxGeometry x="2406" y="1964" width="92" height="60" as="geometry" />
        </mxCell>
        <mxCell id="3jYObA_9YUZSb3R1qSk9-92" value="Jefe departamento&amp;nbsp;" style="rounded=0;whiteSpace=wrap;html=1;fillColor=#f8cecc;strokeColor=#b85450;" parent="1" vertex="1">
          <mxGeometry x="2678" y="1792" width="92" height="60" as="geometry" />
        </mxCell>
        <mxCell id="3jYObA_9YUZSb3R1qSk9-106" style="edgeStyle=orthogonalEdgeStyle;rounded=0;orthogonalLoop=1;jettySize=auto;html=1;" parent="1" source="3jYObA_9YUZSb3R1qSk9-93" target="3jYObA_9YUZSb3R1qSk9-92" edge="1">
          <mxGeometry relative="1" as="geometry">
            <Array as="points">
              <mxPoint x="2646" y="1864" />
              <mxPoint x="2724" y="1864" />
            </Array>
          </mxGeometry>
        </mxCell>
        <mxCell id="3jYObA_9YUZSb3R1qSk9-93" value="Unidad técnica de TV y radio&lt;br&gt;" style="rounded=0;whiteSpace=wrap;html=1;fillColor=#60a917;strokeColor=#2D7600;" parent="1" vertex="1">
          <mxGeometry x="2600" y="1876" width="92" height="60" as="geometry" />
        </mxCell>
        <mxCell id="3jYObA_9YUZSb3R1qSk9-94" value="Jefe unidad&lt;br&gt;" style="rounded=0;whiteSpace=wrap;html=1;fillColor=#d5e8d4;strokeColor=#82b366;" parent="1" vertex="1">
          <mxGeometry x="2600" y="1936" width="92" height="60" as="geometry" />
        </mxCell>
        <mxCell id="3jYObA_9YUZSb3R1qSk9-107" style="edgeStyle=orthogonalEdgeStyle;rounded=0;orthogonalLoop=1;jettySize=auto;html=1;entryX=0.5;entryY=1;entryDx=0;entryDy=0;" parent="1" source="3jYObA_9YUZSb3R1qSk9-95" target="3jYObA_9YUZSb3R1qSk9-92" edge="1">
          <mxGeometry relative="1" as="geometry">
            <Array as="points">
              <mxPoint x="2794" y="1864" />
              <mxPoint x="2728" y="1864" />
              <mxPoint x="2728" y="1860" />
              <mxPoint x="2724" y="1860" />
            </Array>
          </mxGeometry>
        </mxCell>
        <mxCell id="3jYObA_9YUZSb3R1qSk9-95" value="Unidad de informativos y deportes&lt;br&gt;" style="rounded=0;whiteSpace=wrap;html=1;fillColor=#60a917;strokeColor=#2D7600;" parent="1" vertex="1">
          <mxGeometry x="2748" y="1876" width="92" height="60" as="geometry" />
        </mxCell>
        <mxCell id="3jYObA_9YUZSb3R1qSk9-96" value="Jefe unidad&lt;br&gt;" style="rounded=0;whiteSpace=wrap;html=1;fillColor=#d5e8d4;strokeColor=#82b366;" parent="1" vertex="1">
          <mxGeometry x="2748" y="1936" width="92" height="60" as="geometry" />
        </mxCell>
        <mxCell id="3jYObA_9YUZSb3R1qSk9-194" style="edgeStyle=orthogonalEdgeStyle;rounded=0;orthogonalLoop=1;jettySize=auto;html=1;" parent="1" source="3jYObA_9YUZSb3R1qSk9-108" edge="1">
          <mxGeometry relative="1" as="geometry">
            <mxPoint x="3448" y="1280" as="targetPoint" />
            <Array as="points">
              <mxPoint x="3448" y="1412" />
              <mxPoint x="3448" y="1412" />
            </Array>
          </mxGeometry>
        </mxCell>
        <mxCell id="3jYObA_9YUZSb3R1qSk9-108" value="&lt;font style=&quot;&quot;&gt;&lt;span style=&quot;font-size: 17px;&quot;&gt;&lt;b&gt;Servicio de asistencia jurídica&amp;nbsp;y derecho a la información&lt;/b&gt;&lt;/span&gt;&lt;br&gt;&lt;/font&gt;" style="rounded=0;whiteSpace=wrap;html=1;fillColor=#647687;strokeColor=#314354;fontColor=#ffffff;" parent="1" vertex="1">
          <mxGeometry x="2932" y="1448" width="784" height="22" as="geometry" />
        </mxCell>
        <mxCell id="3jYObA_9YUZSb3R1qSk9-110" value="Director servicio" style="rounded=0;whiteSpace=wrap;html=1;fillColor=#fff2cc;strokeColor=#d6b656;gradientColor=#ffd966;" parent="1" vertex="1">
          <mxGeometry x="1720" y="1566" width="120" height="80" as="geometry" />
        </mxCell>
        <mxCell id="3jYObA_9YUZSb3R1qSk9-111" value="Dirección servicio&lt;br&gt;" style="rounded=0;whiteSpace=wrap;html=1;fillColor=#e3c800;strokeColor=#B09500;fontColor=#000000;" parent="1" vertex="1">
          <mxGeometry x="3336" y="1488" width="120" height="80" as="geometry" />
        </mxCell>
        <mxCell id="3jYObA_9YUZSb3R1qSk9-112" value="Director servicio" style="rounded=0;whiteSpace=wrap;html=1;fillColor=#fff2cc;strokeColor=#d6b656;gradientColor=#ffd966;" parent="1" vertex="1">
          <mxGeometry x="3336" y="1568" width="120" height="80" as="geometry" />
        </mxCell>
        <mxCell id="3jYObA_9YUZSb3R1qSk9-206" style="edgeStyle=orthogonalEdgeStyle;rounded=0;orthogonalLoop=1;jettySize=auto;html=1;" parent="1" source="3jYObA_9YUZSb3R1qSk9-113" target="3jYObA_9YUZSb3R1qSk9-122" edge="1">
          <mxGeometry relative="1" as="geometry">
            <Array as="points">
              <mxPoint x="3190" y="1872" />
              <mxPoint x="3078" y="1872" />
            </Array>
          </mxGeometry>
        </mxCell>
        <mxCell id="3jYObA_9YUZSb3R1qSk9-207" style="edgeStyle=orthogonalEdgeStyle;rounded=0;orthogonalLoop=1;jettySize=auto;html=1;" parent="1" source="3jYObA_9YUZSb3R1qSk9-113" target="3jYObA_9YUZSb3R1qSk9-124" edge="1">
          <mxGeometry relative="1" as="geometry" />
        </mxCell>
        <mxCell id="3jYObA_9YUZSb3R1qSk9-208" style="edgeStyle=orthogonalEdgeStyle;rounded=0;orthogonalLoop=1;jettySize=auto;html=1;entryX=0.5;entryY=1;entryDx=0;entryDy=0;" parent="1" source="3jYObA_9YUZSb3R1qSk9-113" target="3jYObA_9YUZSb3R1qSk9-125" edge="1">
          <mxGeometry relative="1" as="geometry">
            <Array as="points">
              <mxPoint x="3190" y="1872" />
              <mxPoint x="3302" y="1872" />
            </Array>
          </mxGeometry>
        </mxCell>
        <mxCell id="3jYObA_9YUZSb3R1qSk9-209" style="edgeStyle=orthogonalEdgeStyle;rounded=0;orthogonalLoop=1;jettySize=auto;html=1;" parent="1" source="3jYObA_9YUZSb3R1qSk9-113" target="3jYObA_9YUZSb3R1qSk9-126" edge="1">
          <mxGeometry relative="1" as="geometry">
            <Array as="points">
              <mxPoint x="3190" y="1872" />
              <mxPoint x="3414" y="1872" />
            </Array>
          </mxGeometry>
        </mxCell>
        <mxCell id="3jYObA_9YUZSb3R1qSk9-113" value="Unidad de coordinación de asesoramiento jurídico&lt;br&gt;" style="rounded=0;whiteSpace=wrap;html=1;fillColor=#60a917;strokeColor=#2D7600;" parent="1" vertex="1">
          <mxGeometry x="3144" y="1888" width="92" height="60" as="geometry" />
        </mxCell>
        <mxCell id="3jYObA_9YUZSb3R1qSk9-114" value="Jefe unidad&lt;br&gt;" style="rounded=0;whiteSpace=wrap;html=1;fillColor=#d5e8d4;strokeColor=#82b366;" parent="1" vertex="1">
          <mxGeometry x="3144" y="1948" width="92" height="60" as="geometry" />
        </mxCell>
        <mxCell id="3jYObA_9YUZSb3R1qSk9-190" style="edgeStyle=orthogonalEdgeStyle;rounded=0;orthogonalLoop=1;jettySize=auto;html=1;entryX=0.5;entryY=1;entryDx=0;entryDy=0;" parent="1" source="3jYObA_9YUZSb3R1qSk9-115" target="3jYObA_9YUZSb3R1qSk9-118" edge="1">
          <mxGeometry relative="1" as="geometry" />
        </mxCell>
        <mxCell id="3jYObA_9YUZSb3R1qSk9-115" value="Unidad de transparencia y administración electrónica&lt;br&gt;" style="rounded=0;whiteSpace=wrap;html=1;fillColor=#60a917;strokeColor=#2D7600;" parent="1" vertex="1">
          <mxGeometry x="3582" y="1881" width="92" height="60" as="geometry" />
        </mxCell>
        <mxCell id="3jYObA_9YUZSb3R1qSk9-116" value="Jefe unidad&lt;br&gt;" style="rounded=0;whiteSpace=wrap;html=1;fillColor=#d5e8d4;strokeColor=#82b366;" parent="1" vertex="1">
          <mxGeometry x="3582" y="1941" width="92" height="60" as="geometry" />
        </mxCell>
        <mxCell id="3jYObA_9YUZSb3R1qSk9-211" style="edgeStyle=orthogonalEdgeStyle;rounded=0;orthogonalLoop=1;jettySize=auto;html=1;entryX=0.5;entryY=1;entryDx=0;entryDy=0;" parent="1" source="3jYObA_9YUZSb3R1qSk9-117" target="3jYObA_9YUZSb3R1qSk9-112" edge="1">
          <mxGeometry relative="1" as="geometry">
            <Array as="points">
              <mxPoint x="3628" y="1676" />
              <mxPoint x="3396" y="1676" />
            </Array>
          </mxGeometry>
        </mxCell>
        <mxCell id="3jYObA_9YUZSb3R1qSk9-117" value="Departamento administración pública electrónica&amp;nbsp;" style="rounded=0;whiteSpace=wrap;html=1;fillColor=#f0a30a;strokeColor=#BD7000;fontColor=#000000;" parent="1" vertex="1">
          <mxGeometry x="3568" y="1713" width="120" height="80" as="geometry" />
        </mxCell>
        <mxCell id="3jYObA_9YUZSb3R1qSk9-118" value="Jefe departamento&amp;nbsp;" style="rounded=0;whiteSpace=wrap;html=1;fillColor=#f8cecc;strokeColor=#b85450;" parent="1" vertex="1">
          <mxGeometry x="3582" y="1793" width="92" height="60" as="geometry" />
        </mxCell>
        <mxCell id="3jYObA_9YUZSb3R1qSk9-216" style="edgeStyle=orthogonalEdgeStyle;rounded=0;orthogonalLoop=1;jettySize=auto;html=1;entryX=0.5;entryY=1;entryDx=0;entryDy=0;" parent="1" source="3jYObA_9YUZSb3R1qSk9-119" target="3jYObA_9YUZSb3R1qSk9-133" edge="1">
          <mxGeometry relative="1" as="geometry">
            <Array as="points">
              <mxPoint x="3964" y="1672" />
              <mxPoint x="4400" y="1672" />
            </Array>
          </mxGeometry>
        </mxCell>
        <mxCell id="3jYObA_9YUZSb3R1qSk9-119" value="Departamento de sistemas y telecomunicaciones&lt;br&gt;" style="rounded=0;whiteSpace=wrap;html=1;fillColor=#f0a30a;strokeColor=#BD7000;fontColor=#000000;" parent="1" vertex="1">
          <mxGeometry x="3904" y="1712" width="120" height="80" as="geometry" />
        </mxCell>
        <mxCell id="3jYObA_9YUZSb3R1qSk9-120" value="Jefe departamento&amp;nbsp;" style="rounded=0;whiteSpace=wrap;html=1;fillColor=#f8cecc;strokeColor=#b85450;" parent="1" vertex="1">
          <mxGeometry x="3918" y="1792" width="92" height="60" as="geometry" />
        </mxCell>
        <mxCell id="3jYObA_9YUZSb3R1qSk9-210" style="edgeStyle=orthogonalEdgeStyle;rounded=0;orthogonalLoop=1;jettySize=auto;html=1;entryX=0.5;entryY=1;entryDx=0;entryDy=0;" parent="1" source="3jYObA_9YUZSb3R1qSk9-121" target="3jYObA_9YUZSb3R1qSk9-112" edge="1">
          <mxGeometry relative="1" as="geometry">
            <Array as="points">
              <mxPoint x="3192" y="1676" />
              <mxPoint x="3396" y="1676" />
            </Array>
          </mxGeometry>
        </mxCell>
        <mxCell id="3jYObA_9YUZSb3R1qSk9-121" value="Departamento apoyo jurídico al gobierno&lt;br&gt;" style="rounded=0;whiteSpace=wrap;html=1;fillColor=#f0a30a;strokeColor=#BD7000;fontColor=#000000;" parent="1" vertex="1">
          <mxGeometry x="3132" y="1712" width="120" height="80" as="geometry" />
        </mxCell>
        <mxCell id="3jYObA_9YUZSb3R1qSk9-122" value="Jefe departamento&amp;nbsp;" style="rounded=0;whiteSpace=wrap;html=1;fillColor=#f8cecc;strokeColor=#b85450;" parent="1" vertex="1">
          <mxGeometry x="3032" y="1792" width="92" height="60" as="geometry" />
        </mxCell>
        <mxCell id="3jYObA_9YUZSb3R1qSk9-123" value="Jefe departamento&amp;nbsp;" style="rounded=0;whiteSpace=wrap;html=1;fillColor=#f8cecc;strokeColor=#b85450;" parent="1" vertex="1">
          <mxGeometry x="2920" y="1792" width="92" height="60" as="geometry" />
        </mxCell>
        <mxCell id="3jYObA_9YUZSb3R1qSk9-124" value="Jefe departamento&amp;nbsp;" style="rounded=0;whiteSpace=wrap;html=1;fillColor=#f8cecc;strokeColor=#b85450;" parent="1" vertex="1">
          <mxGeometry x="3144" y="1792" width="92" height="60" as="geometry" />
        </mxCell>
        <mxCell id="3jYObA_9YUZSb3R1qSk9-125" value="Jefe departamento&amp;nbsp;" style="rounded=0;whiteSpace=wrap;html=1;fillColor=#f8cecc;strokeColor=#b85450;" parent="1" vertex="1">
          <mxGeometry x="3256" y="1792" width="92" height="60" as="geometry" />
        </mxCell>
        <mxCell id="3jYObA_9YUZSb3R1qSk9-126" value="Jefe departamento&amp;nbsp;" style="rounded=0;whiteSpace=wrap;html=1;fillColor=#f8cecc;strokeColor=#b85450;" parent="1" vertex="1">
          <mxGeometry x="3368" y="1792" width="92" height="60" as="geometry" />
        </mxCell>
        <mxCell id="3jYObA_9YUZSb3R1qSk9-127" value="" style="endArrow=none;html=1;rounded=0;strokeWidth=19;fillColor=#ffcd28;gradientColor=#ffa500;strokeColor=#d79b00;" parent="1" edge="1">
          <mxGeometry width="50" height="50" relative="1" as="geometry">
            <mxPoint x="268" y="2164" as="sourcePoint" />
            <mxPoint x="268" y="1312" as="targetPoint" />
          </mxGeometry>
        </mxCell>
        <mxCell id="3jYObA_9YUZSb3R1qSk9-129" style="edgeStyle=orthogonalEdgeStyle;rounded=0;orthogonalLoop=1;jettySize=auto;html=1;" parent="1" source="3jYObA_9YUZSb3R1qSk9-128" target="3jYObA_9YUZSb3R1qSk9-116" edge="1">
          <mxGeometry relative="1" as="geometry" />
        </mxCell>
        <mxCell id="3jYObA_9YUZSb3R1qSk9-128" value="Técnico comunicación&lt;br&gt;" style="whiteSpace=wrap;html=1;fillColor=#bac8d3;strokeColor=#23445d;rounded=0;" parent="1" vertex="1">
          <mxGeometry x="3578" y="2049" width="100" height="40" as="geometry" />
        </mxCell>
        <mxCell id="3jYObA_9YUZSb3R1qSk9-130" value="" style="endArrow=none;html=1;rounded=0;strokeWidth=19;fillColor=#ffcd28;gradientColor=#ffa500;strokeColor=#d79b00;" parent="1" edge="1">
          <mxGeometry width="50" height="50" relative="1" as="geometry">
            <mxPoint x="3768" y="2152" as="sourcePoint" />
            <mxPoint x="3768" y="1312" as="targetPoint" />
          </mxGeometry>
        </mxCell>
        <mxCell id="3jYObA_9YUZSb3R1qSk9-195" style="edgeStyle=orthogonalEdgeStyle;rounded=0;orthogonalLoop=1;jettySize=auto;html=1;exitX=0.455;exitY=0;exitDx=0;exitDy=0;exitPerimeter=0;" parent="1" source="3jYObA_9YUZSb3R1qSk9-131" edge="1">
          <mxGeometry relative="1" as="geometry">
            <mxPoint x="3448" y="1292" as="targetPoint" />
            <mxPoint x="4504" y="1368" as="sourcePoint" />
            <Array as="points">
              <mxPoint x="4504" y="1292" />
            </Array>
          </mxGeometry>
        </mxCell>
        <mxCell id="3jYObA_9YUZSb3R1qSk9-131" value="&lt;font style=&quot;&quot;&gt;&lt;b style=&quot;font-size: 17px;&quot;&gt;Servicio de informática y sistema de &lt;/b&gt;&lt;span style=&quot;font-size: 17px;&quot;&gt;&lt;b&gt;información&lt;/b&gt;&lt;/span&gt;&lt;b style=&quot;font-size: 17px;&quot;&gt;&amp;nbsp;municipal&lt;/b&gt;&lt;br&gt;&lt;/font&gt;" style="rounded=0;whiteSpace=wrap;html=1;fillColor=#647687;strokeColor=#314354;fontColor=#ffffff;" parent="1" vertex="1">
          <mxGeometry x="3840" y="1440" width="1040" height="22" as="geometry" />
        </mxCell>
        <mxCell id="3jYObA_9YUZSb3R1qSk9-132" value="Dirección servicio&lt;br&gt;" style="rounded=0;whiteSpace=wrap;html=1;fillColor=#e3c800;strokeColor=#B09500;fontColor=#000000;" parent="1" vertex="1">
          <mxGeometry x="4336" y="1497" width="120" height="80" as="geometry" />
        </mxCell>
        <mxCell id="3jYObA_9YUZSb3R1qSk9-133" value="Director servicio" style="rounded=0;whiteSpace=wrap;html=1;fillColor=#fff2cc;strokeColor=#d6b656;gradientColor=#ffd966;" parent="1" vertex="1">
          <mxGeometry x="4336" y="1566" width="120" height="80" as="geometry" />
        </mxCell>
        <mxCell id="3jYObA_9YUZSb3R1qSk9-217" style="edgeStyle=orthogonalEdgeStyle;rounded=0;orthogonalLoop=1;jettySize=auto;html=1;" parent="1" source="3jYObA_9YUZSb3R1qSk9-134" edge="1">
          <mxGeometry relative="1" as="geometry">
            <mxPoint x="4400" y="1648" as="targetPoint" />
          </mxGeometry>
        </mxCell>
        <mxCell id="3jYObA_9YUZSb3R1qSk9-134" value="Departamento desarrollo SIM&lt;br&gt;" style="rounded=0;whiteSpace=wrap;html=1;fillColor=#f0a30a;strokeColor=#BD7000;fontColor=#000000;" parent="1" vertex="1">
          <mxGeometry x="4332" y="1720" width="120" height="80" as="geometry" />
        </mxCell>
        <mxCell id="3jYObA_9YUZSb3R1qSk9-135" value="Jefe departamento&amp;nbsp;" style="rounded=0;whiteSpace=wrap;html=1;fillColor=#f8cecc;strokeColor=#b85450;" parent="1" vertex="1">
          <mxGeometry x="4346" y="1800" width="92" height="60" as="geometry" />
        </mxCell>
        <mxCell id="3jYObA_9YUZSb3R1qSk9-214" style="edgeStyle=orthogonalEdgeStyle;rounded=0;orthogonalLoop=1;jettySize=auto;html=1;entryX=0.5;entryY=1;entryDx=0;entryDy=0;" parent="1" source="3jYObA_9YUZSb3R1qSk9-136" target="3jYObA_9YUZSb3R1qSk9-133" edge="1">
          <mxGeometry relative="1" as="geometry">
            <Array as="points">
              <mxPoint x="4800" y="1672" />
              <mxPoint x="4400" y="1672" />
            </Array>
          </mxGeometry>
        </mxCell>
        <mxCell id="3jYObA_9YUZSb3R1qSk9-136" value="Departamento seguridad informática" style="rounded=0;whiteSpace=wrap;html=1;fillColor=#f0a30a;strokeColor=#BD7000;fontColor=#000000;" parent="1" vertex="1">
          <mxGeometry x="4740" y="1711" width="120" height="80" as="geometry" />
        </mxCell>
        <mxCell id="3jYObA_9YUZSb3R1qSk9-137" value="Jefe departamento&amp;nbsp;" style="rounded=0;whiteSpace=wrap;html=1;fillColor=#f8cecc;strokeColor=#b85450;" parent="1" vertex="1">
          <mxGeometry x="4754" y="1788" width="92" height="54" as="geometry" />
        </mxCell>
        <mxCell id="3jYObA_9YUZSb3R1qSk9-138" value="" style="endArrow=none;html=1;rounded=0;strokeWidth=19;fillColor=#ffcd28;gradientColor=#ffa500;strokeColor=#d79b00;" parent="1" edge="1">
          <mxGeometry width="50" height="50" relative="1" as="geometry">
            <mxPoint x="4948" y="2160" as="sourcePoint" />
            <mxPoint x="4952" y="1338.5" as="targetPoint" />
          </mxGeometry>
        </mxCell>
        <mxCell id="3jYObA_9YUZSb3R1qSk9-183" style="edgeStyle=orthogonalEdgeStyle;rounded=0;orthogonalLoop=1;jettySize=auto;html=1;" parent="1" source="3jYObA_9YUZSb3R1qSk9-139" target="3jYObA_9YUZSb3R1qSk9-143" edge="1">
          <mxGeometry relative="1" as="geometry">
            <Array as="points">
              <mxPoint x="5152" y="1682.5" />
              <mxPoint x="5320" y="1682.5" />
            </Array>
          </mxGeometry>
        </mxCell>
        <mxCell id="3jYObA_9YUZSb3R1qSk9-139" value="Departamento desarrollo SIG&lt;br&gt;&amp;nbsp;" style="rounded=0;whiteSpace=wrap;html=1;fillColor=#f0a30a;strokeColor=#BD7000;fontColor=#000000;" parent="1" vertex="1">
          <mxGeometry x="5092" y="1718.5" width="120" height="80" as="geometry" />
        </mxCell>
        <mxCell id="3jYObA_9YUZSb3R1qSk9-140" value="Jefe departamento&amp;nbsp;" style="rounded=0;whiteSpace=wrap;html=1;fillColor=#f8cecc;strokeColor=#b85450;" parent="1" vertex="1">
          <mxGeometry x="5106" y="1798.5" width="92" height="60" as="geometry" />
        </mxCell>
        <mxCell id="3jYObA_9YUZSb3R1qSk9-196" style="edgeStyle=orthogonalEdgeStyle;rounded=0;orthogonalLoop=1;jettySize=auto;html=1;exitX=0.534;exitY=0.129;exitDx=0;exitDy=0;exitPerimeter=0;" parent="1" source="3jYObA_9YUZSb3R1qSk9-141" target="TwxXVnbzhG5g05Hw5wYQ-2" edge="1">
          <mxGeometry relative="1" as="geometry">
            <Array as="points">
              <mxPoint x="5311" y="1292" />
              <mxPoint x="3447" y="1292" />
            </Array>
          </mxGeometry>
        </mxCell>
        <mxCell id="3jYObA_9YUZSb3R1qSk9-141" value="&lt;font style=&quot;&quot;&gt;&lt;b style=&quot;font-size: 17px;&quot;&gt;Servicio de sistema de información geográfica&lt;/b&gt;&lt;br&gt;&lt;/font&gt;" style="rounded=0;whiteSpace=wrap;html=1;fillColor=#647687;strokeColor=#314354;fontColor=#ffffff;" parent="1" vertex="1">
          <mxGeometry x="5040" y="1432.5" width="508" height="22" as="geometry" />
        </mxCell>
        <mxCell id="3jYObA_9YUZSb3R1qSk9-198" value="" style="edgeStyle=orthogonalEdgeStyle;rounded=0;orthogonalLoop=1;jettySize=auto;html=1;" parent="1" source="3jYObA_9YUZSb3R1qSk9-142" target="3jYObA_9YUZSb3R1qSk9-141" edge="1">
          <mxGeometry relative="1" as="geometry" />
        </mxCell>
        <mxCell id="3jYObA_9YUZSb3R1qSk9-142" value="Dirección servicio&lt;br&gt;" style="rounded=0;whiteSpace=wrap;html=1;fillColor=#e3c800;strokeColor=#B09500;fontColor=#000000;" parent="1" vertex="1">
          <mxGeometry x="5260" y="1496.5" width="120" height="80" as="geometry" />
        </mxCell>
        <mxCell id="3jYObA_9YUZSb3R1qSk9-143" value="Director servicio" style="rounded=0;whiteSpace=wrap;html=1;fillColor=#fff2cc;strokeColor=#d6b656;gradientColor=#ffd966;" parent="1" vertex="1">
          <mxGeometry x="5260" y="1576.5" width="120" height="80" as="geometry" />
        </mxCell>
        <mxCell id="3jYObA_9YUZSb3R1qSk9-148" value="" style="endArrow=none;html=1;rounded=0;strokeWidth=20;fillColor=#ffcd28;gradientColor=#ffa500;strokeColor=#d79b00;" parent="1" edge="1">
          <mxGeometry width="50" height="50" relative="1" as="geometry">
            <mxPoint x="5620" y="2156" as="sourcePoint" />
            <mxPoint x="5628" y="1347.5" as="targetPoint" />
          </mxGeometry>
        </mxCell>
        <mxCell id="3jYObA_9YUZSb3R1qSk9-170" style="edgeStyle=orthogonalEdgeStyle;rounded=0;orthogonalLoop=1;jettySize=auto;html=1;exitX=0.5;exitY=0;exitDx=0;exitDy=0;" parent="1" source="3jYObA_9YUZSb3R1qSk9-149" target="3jYObA_9YUZSb3R1qSk9-120" edge="1">
          <mxGeometry relative="1" as="geometry" />
        </mxCell>
        <mxCell id="3jYObA_9YUZSb3R1qSk9-149" value="Unidad" style="rounded=0;whiteSpace=wrap;html=1;fillColor=#60a917;strokeColor=#2D7600;" parent="1" vertex="1">
          <mxGeometry x="3856" y="1879" width="92" height="60" as="geometry" />
        </mxCell>
        <mxCell id="3jYObA_9YUZSb3R1qSk9-150" value="Jefe unidad&lt;br&gt;" style="rounded=0;whiteSpace=wrap;html=1;fillColor=#d5e8d4;strokeColor=#82b366;" parent="1" vertex="1">
          <mxGeometry x="3856" y="1939" width="92" height="60" as="geometry" />
        </mxCell>
        <mxCell id="3jYObA_9YUZSb3R1qSk9-215" style="edgeStyle=orthogonalEdgeStyle;rounded=0;orthogonalLoop=1;jettySize=auto;html=1;entryX=0.5;entryY=1;entryDx=0;entryDy=0;" parent="1" source="3jYObA_9YUZSb3R1qSk9-151" target="3jYObA_9YUZSb3R1qSk9-143" edge="1">
          <mxGeometry relative="1" as="geometry">
            <Array as="points">
              <mxPoint x="5444" y="1684" />
              <mxPoint x="5320" y="1684" />
            </Array>
          </mxGeometry>
        </mxCell>
        <mxCell id="3jYObA_9YUZSb3R1qSk9-151" value="Departamento cartografía&lt;br&gt;&amp;nbsp;" style="rounded=0;whiteSpace=wrap;html=1;fillColor=#f0a30a;strokeColor=#BD7000;fontColor=#000000;" parent="1" vertex="1">
          <mxGeometry x="5384" y="1719.5" width="120" height="80" as="geometry" />
        </mxCell>
        <mxCell id="3jYObA_9YUZSb3R1qSk9-152" value="Jefe departamento&amp;nbsp;" style="rounded=0;whiteSpace=wrap;html=1;fillColor=#f8cecc;strokeColor=#b85450;" parent="1" vertex="1">
          <mxGeometry x="5398" y="1799.5" width="92" height="60" as="geometry" />
        </mxCell>
        <mxCell id="3jYObA_9YUZSb3R1qSk9-171" style="edgeStyle=orthogonalEdgeStyle;rounded=0;orthogonalLoop=1;jettySize=auto;html=1;entryX=0.5;entryY=1;entryDx=0;entryDy=0;" parent="1" source="3jYObA_9YUZSb3R1qSk9-153" target="3jYObA_9YUZSb3R1qSk9-120" edge="1">
          <mxGeometry relative="1" as="geometry" />
        </mxCell>
        <mxCell id="3jYObA_9YUZSb3R1qSk9-153" value="Unidad" style="rounded=0;whiteSpace=wrap;html=1;fillColor=#60a917;strokeColor=#2D7600;" parent="1" vertex="1">
          <mxGeometry x="3972" y="1879" width="92" height="60" as="geometry" />
        </mxCell>
        <mxCell id="3jYObA_9YUZSb3R1qSk9-154" value="Jefe unidad&lt;br&gt;" style="rounded=0;whiteSpace=wrap;html=1;fillColor=#d5e8d4;strokeColor=#82b366;" parent="1" vertex="1">
          <mxGeometry x="3972" y="1939" width="92" height="60" as="geometry" />
        </mxCell>
        <mxCell id="3jYObA_9YUZSb3R1qSk9-168" style="edgeStyle=orthogonalEdgeStyle;rounded=0;orthogonalLoop=1;jettySize=auto;html=1;" parent="1" source="3jYObA_9YUZSb3R1qSk9-155" target="3jYObA_9YUZSb3R1qSk9-135" edge="1">
          <mxGeometry relative="1" as="geometry">
            <Array as="points">
              <mxPoint x="4160" y="1868" />
              <mxPoint x="4392" y="1868" />
            </Array>
          </mxGeometry>
        </mxCell>
        <mxCell id="3jYObA_9YUZSb3R1qSk9-155" value="Unidad" style="rounded=0;whiteSpace=wrap;html=1;fillColor=#60a917;strokeColor=#2D7600;" parent="1" vertex="1">
          <mxGeometry x="4114" y="1883" width="92" height="60" as="geometry" />
        </mxCell>
        <mxCell id="3jYObA_9YUZSb3R1qSk9-156" value="Jefe unidad&lt;br&gt;" style="rounded=0;whiteSpace=wrap;html=1;fillColor=#d5e8d4;strokeColor=#82b366;" parent="1" vertex="1">
          <mxGeometry x="4114" y="1943" width="92" height="60" as="geometry" />
        </mxCell>
        <mxCell id="3jYObA_9YUZSb3R1qSk9-172" style="edgeStyle=orthogonalEdgeStyle;rounded=0;orthogonalLoop=1;jettySize=auto;html=1;entryX=0.5;entryY=1;entryDx=0;entryDy=0;" parent="1" source="3jYObA_9YUZSb3R1qSk9-157" target="3jYObA_9YUZSb3R1qSk9-135" edge="1">
          <mxGeometry relative="1" as="geometry">
            <Array as="points">
              <mxPoint x="4276" y="1868" />
              <mxPoint x="4392" y="1868" />
            </Array>
          </mxGeometry>
        </mxCell>
        <mxCell id="3jYObA_9YUZSb3R1qSk9-157" value="Unidad" style="rounded=0;whiteSpace=wrap;html=1;fillColor=#60a917;strokeColor=#2D7600;" parent="1" vertex="1">
          <mxGeometry x="4230" y="1884" width="92" height="59" as="geometry" />
        </mxCell>
        <mxCell id="3jYObA_9YUZSb3R1qSk9-158" value="Jefe unidad&lt;br&gt;" style="rounded=0;whiteSpace=wrap;html=1;fillColor=#d5e8d4;strokeColor=#82b366;" parent="1" vertex="1">
          <mxGeometry x="4230" y="1943" width="92" height="60" as="geometry" />
        </mxCell>
        <mxCell id="3jYObA_9YUZSb3R1qSk9-175" style="edgeStyle=orthogonalEdgeStyle;rounded=0;orthogonalLoop=1;jettySize=auto;html=1;" parent="1" source="3jYObA_9YUZSb3R1qSk9-159" edge="1">
          <mxGeometry relative="1" as="geometry">
            <mxPoint x="4391.999999999999" y="1872" as="targetPoint" />
            <Array as="points">
              <mxPoint x="4382" y="1868" />
              <mxPoint x="4392" y="1868" />
            </Array>
          </mxGeometry>
        </mxCell>
        <mxCell id="3jYObA_9YUZSb3R1qSk9-159" value="Unidad" style="rounded=0;whiteSpace=wrap;html=1;fillColor=#60a917;strokeColor=#2D7600;" parent="1" vertex="1">
          <mxGeometry x="4336" y="1883" width="92" height="60" as="geometry" />
        </mxCell>
        <mxCell id="3jYObA_9YUZSb3R1qSk9-160" value="Jefe unidad&lt;br&gt;" style="rounded=0;whiteSpace=wrap;html=1;fillColor=#d5e8d4;strokeColor=#82b366;" parent="1" vertex="1">
          <mxGeometry x="4336" y="1943" width="92" height="60" as="geometry" />
        </mxCell>
        <mxCell id="3jYObA_9YUZSb3R1qSk9-173" style="edgeStyle=orthogonalEdgeStyle;rounded=0;orthogonalLoop=1;jettySize=auto;html=1;entryX=0.5;entryY=1;entryDx=0;entryDy=0;" parent="1" source="3jYObA_9YUZSb3R1qSk9-161" target="3jYObA_9YUZSb3R1qSk9-135" edge="1">
          <mxGeometry relative="1" as="geometry">
            <Array as="points">
              <mxPoint x="4498" y="1868" />
              <mxPoint x="4392" y="1868" />
            </Array>
          </mxGeometry>
        </mxCell>
        <mxCell id="3jYObA_9YUZSb3R1qSk9-161" value="Unidad" style="rounded=0;whiteSpace=wrap;html=1;fillColor=#60a917;strokeColor=#2D7600;" parent="1" vertex="1">
          <mxGeometry x="4452" y="1883" width="92" height="60" as="geometry" />
        </mxCell>
        <mxCell id="3jYObA_9YUZSb3R1qSk9-162" value="Jefe unidad&lt;br&gt;" style="rounded=0;whiteSpace=wrap;html=1;fillColor=#d5e8d4;strokeColor=#82b366;" parent="1" vertex="1">
          <mxGeometry x="4452" y="1943" width="92" height="60" as="geometry" />
        </mxCell>
        <mxCell id="3jYObA_9YUZSb3R1qSk9-169" style="edgeStyle=orthogonalEdgeStyle;rounded=0;orthogonalLoop=1;jettySize=auto;html=1;entryX=0.5;entryY=1;entryDx=0;entryDy=0;" parent="1" source="3jYObA_9YUZSb3R1qSk9-163" target="3jYObA_9YUZSb3R1qSk9-135" edge="1">
          <mxGeometry relative="1" as="geometry">
            <Array as="points">
              <mxPoint x="4622" y="1868" />
              <mxPoint x="4392" y="1868" />
            </Array>
          </mxGeometry>
        </mxCell>
        <mxCell id="3jYObA_9YUZSb3R1qSk9-163" value="Unidad" style="rounded=0;whiteSpace=wrap;html=1;fillColor=#60a917;strokeColor=#2D7600;" parent="1" vertex="1">
          <mxGeometry x="4576" y="1888" width="92" height="60" as="geometry" />
        </mxCell>
        <mxCell id="3jYObA_9YUZSb3R1qSk9-164" value="Jefe unidad&lt;br&gt;" style="rounded=0;whiteSpace=wrap;html=1;fillColor=#d5e8d4;strokeColor=#82b366;" parent="1" vertex="1">
          <mxGeometry x="4576" y="1948" width="92" height="60" as="geometry" />
        </mxCell>
        <mxCell id="3jYObA_9YUZSb3R1qSk9-176" style="edgeStyle=orthogonalEdgeStyle;rounded=0;orthogonalLoop=1;jettySize=auto;html=1;" parent="1" source="3jYObA_9YUZSb3R1qSk9-166" target="3jYObA_9YUZSb3R1qSk9-137" edge="1">
          <mxGeometry relative="1" as="geometry" />
        </mxCell>
        <mxCell id="3jYObA_9YUZSb3R1qSk9-166" value="Unidad" style="rounded=0;whiteSpace=wrap;html=1;fillColor=#60a917;strokeColor=#2D7600;" parent="1" vertex="1">
          <mxGeometry x="4754" y="1888" width="92" height="60" as="geometry" />
        </mxCell>
        <mxCell id="3jYObA_9YUZSb3R1qSk9-167" value="Jefe unidad&lt;br&gt;" style="rounded=0;whiteSpace=wrap;html=1;fillColor=#d5e8d4;strokeColor=#82b366;" parent="1" vertex="1">
          <mxGeometry x="4754" y="1948" width="92" height="60" as="geometry" />
        </mxCell>
        <mxCell id="3jYObA_9YUZSb3R1qSk9-181" style="edgeStyle=orthogonalEdgeStyle;rounded=0;orthogonalLoop=1;jettySize=auto;html=1;" parent="1" source="3jYObA_9YUZSb3R1qSk9-177" target="3jYObA_9YUZSb3R1qSk9-140" edge="1">
          <mxGeometry relative="1" as="geometry" />
        </mxCell>
        <mxCell id="3jYObA_9YUZSb3R1qSk9-177" value="Unidad proyectos SIG" style="rounded=0;whiteSpace=wrap;html=1;fillColor=#60a917;strokeColor=#2D7600;" parent="1" vertex="1">
          <mxGeometry x="5106" y="1894.5" width="92" height="60" as="geometry" />
        </mxCell>
        <mxCell id="3jYObA_9YUZSb3R1qSk9-178" value="Jefe unidad&lt;br&gt;" style="rounded=0;whiteSpace=wrap;html=1;fillColor=#d5e8d4;strokeColor=#82b366;" parent="1" vertex="1">
          <mxGeometry x="5106" y="1954.5" width="92" height="60" as="geometry" />
        </mxCell>
        <mxCell id="3jYObA_9YUZSb3R1qSk9-182" value="" style="edgeStyle=orthogonalEdgeStyle;rounded=0;orthogonalLoop=1;jettySize=auto;html=1;" parent="1" source="3jYObA_9YUZSb3R1qSk9-179" target="3jYObA_9YUZSb3R1qSk9-152" edge="1">
          <mxGeometry relative="1" as="geometry" />
        </mxCell>
        <mxCell id="3jYObA_9YUZSb3R1qSk9-179" value="Unidad de cartográfia&lt;br&gt;" style="rounded=0;whiteSpace=wrap;html=1;fillColor=#60a917;strokeColor=#2D7600;" parent="1" vertex="1">
          <mxGeometry x="5398" y="1890.5" width="92" height="64" as="geometry" />
        </mxCell>
        <mxCell id="3jYObA_9YUZSb3R1qSk9-180" value="Jefe unidad&lt;br&gt;" style="rounded=0;whiteSpace=wrap;html=1;fillColor=#d5e8d4;strokeColor=#82b366;" parent="1" vertex="1">
          <mxGeometry x="5398" y="1954.5" width="92" height="60" as="geometry" />
        </mxCell>
        <mxCell id="3jYObA_9YUZSb3R1qSk9-191" style="edgeStyle=orthogonalEdgeStyle;rounded=0;orthogonalLoop=1;jettySize=auto;html=1;entryX=0.641;entryY=1.009;entryDx=0;entryDy=0;entryPerimeter=0;" parent="1" source="3jYObA_9YUZSb3R1qSk9-113" target="3jYObA_9YUZSb3R1qSk9-123" edge="1">
          <mxGeometry relative="1" as="geometry">
            <Array as="points">
              <mxPoint x="3190" y="1872" />
              <mxPoint x="2979" y="1872" />
            </Array>
          </mxGeometry>
        </mxCell>
        <mxCell id="3jYObA_9YUZSb3R1qSk9-193" value="" style="endArrow=none;html=1;rounded=0;strokeWidth=19;fillColor=#ffcd28;gradientColor=#ffa500;strokeColor=#d79b00;" parent="1" edge="1">
          <mxGeometry width="50" height="50" relative="1" as="geometry">
            <mxPoint x="2876" y="2152" as="sourcePoint" />
            <mxPoint x="2884" y="1368" as="targetPoint" />
          </mxGeometry>
        </mxCell>
        <mxCell id="3jYObA_9YUZSb3R1qSk9-200" value="" style="endArrow=none;html=1;rounded=0;fillColor=#ffcd28;gradientColor=#ffa500;strokeColor=#d79b00;strokeWidth=20;" parent="1" edge="1">
          <mxGeometry width="50" height="50" relative="1" as="geometry">
            <mxPoint x="260" y="2160" as="sourcePoint" />
            <mxPoint x="5632" y="2152" as="targetPoint" />
          </mxGeometry>
        </mxCell>
        <mxCell id="1P0GHpnjwULrTs2cNRCr-1" value="&lt;br&gt;Orgánicos" style="rounded=0;whiteSpace=wrap;html=1;fillColor=#f8cecc;strokeColor=#b85450;" vertex="1" parent="1">
          <mxGeometry x="136" y="68" width="120" height="120" as="geometry" />
        </mxCell>
        <mxCell id="1P0GHpnjwULrTs2cNRCr-2" value="&lt;br&gt;Programas" style="rounded=0;whiteSpace=wrap;html=1;fillColor=#f8cecc;strokeColor=#b85450;" vertex="1" parent="1">
          <mxGeometry x="316" y="64" width="120" height="120" as="geometry" />
        </mxCell>
      </root>
    </mxGraphModel>
  </diagram>
</mxfile>
